<svg width="57" height="57" viewBox="0 0 57 57" fill="none" xmlns="http://www.w3.org/2000/svg">
<path d="M56.4913 5.0624L44.735 0.0665464C44.5262 -0.0221821 44.2906 -0.0221821 44.0818 0.0665464L32.3252 5.0624C32.017 5.19343 31.8169 5.49591 31.8169 5.83078V8.18548L25.6332 4.86345C24.4401 4.22153 23.014 4.2153 21.8147 4.84675C21.8075 4.85043 21.8003 4.85421 21.7931 4.85811C21.7899 4.85989 21.7866 4.86145 21.7834 4.86323L2.23202 15.3664C1.57841 15.7164 1.02489 16.2431 0.631453 16.8896C0.631342 16.8898 0.631231 16.89 0.631119 16.8901C0.631008 16.8902 0.630897 16.8905 0.630785 16.8906C0.218092 17.5708 0 18.3534 0 19.1539V42.7588C0 44.3941 0.884947 45.8608 2.30939 46.5865L11.3286 51.1844C11.7394 51.394 12.2422 51.2307 12.4517 50.8198C12.6612 50.409 12.4979 49.9061 12.0871 49.6967L3.06765 45.0987C2.21855 44.6661 1.66992 43.7477 1.66992 42.7588V19.154C1.66992 18.922 1.69954 18.6925 1.75698 18.4711L22.8735 29.2363V55.1781C22.7875 55.146 22.7033 55.109 22.6211 55.0671L15.5495 51.462C15.139 51.2525 14.636 51.4156 14.4265 51.8266C14.2169 52.2374 14.3803 52.7402 14.7911 52.9496L21.8623 56.5547C22.4331 56.8459 23.0713 56.9999 23.7083 56.9999C24.3453 56.9999 24.9836 56.8459 25.554 56.5548L45.1057 46.5868C46.5306 45.8616 47.4157 44.395 47.4157 42.7588V28.0354C49.1592 26.9166 50.719 25.5467 52.0733 23.9419C52.3708 23.5895 52.3261 23.0628 51.9736 22.7654C51.6214 22.4678 51.0945 22.5125 50.7971 22.865C49.0534 24.9334 46.9009 26.6019 44.4081 27.8021C41.1631 26.2498 38.4298 23.8294 36.4954 20.7929C34.527 17.703 33.4866 14.1334 33.4866 10.4697C33.4866 9.83303 33.4866 7.02778 33.4866 6.38319L44.4082 1.74215L55.3297 6.38319V10.4697C55.3297 13.735 54.4901 16.9681 52.9016 19.8193C52.6771 20.2222 52.8217 20.7307 53.2245 20.955C53.6274 21.1794 54.1359 21.0349 54.3603 20.6321C56.087 17.5328 56.9996 14.0189 56.9996 10.4697V5.83078C56.9998 5.4958 56.7996 5.19332 56.4913 5.0624ZM35.0872 21.6901C37.2266 25.0486 40.265 27.7133 43.8737 29.3964C44.129 29.5308 44.4692 29.667 44.9428 29.3964C45.2145 29.2697 45.4814 29.1362 45.746 28.9991V42.7589C45.746 43.7482 45.1974 44.6666 44.348 45.0989L24.7954 55.0673C24.7136 55.1092 24.6293 55.1461 24.5434 55.1782V29.2363L33.3027 24.7706C33.7135 24.5612 33.8768 24.0583 33.6673 23.6475C33.4578 23.2366 32.955 23.0733 32.5442 23.2829L23.7084 27.7877L2.67388 17.0641C2.78331 16.979 2.89943 16.9033 3.02145 16.838L22.5615 6.34067C22.5674 6.33777 22.5732 6.33465 22.5789 6.33154C22.5811 6.33042 22.5831 6.32931 22.5852 6.32831C23.2931 5.95224 24.1366 5.95447 24.8422 6.33421L31.8168 10.0812V10.4697C31.8168 14.4517 32.9478 18.3316 35.0872 21.6901Z" fill="#AA8D6D"/>
<path d="M52.176 8.94501C51.1554 7.92458 49.4948 7.92458 48.4741 8.94501L42.37 15.0492L40.3423 13.0214C39.3217 12.001 37.6612 12.0009 36.6404 13.0214C35.6199 14.0419 35.6199 15.7026 36.6404 16.7234L40.5514 20.6344C41.0371 21.1201 41.683 21.3876 42.37 21.3876C43.057 21.3876 43.703 21.1202 44.1887 20.6344L52.176 12.647C52.6703 12.1526 52.9427 11.4951 52.9427 10.796C52.9427 10.0968 52.6704 9.43942 52.176 8.94501ZM50.9952 11.4661L43.0078 19.4535C42.6562 19.8053 42.0839 19.8053 41.7323 19.4535L37.8214 15.5427C37.4519 15.1732 37.4519 14.5718 37.8214 14.2024C38.0061 14.0176 38.2488 13.9253 38.4915 13.9253C38.7343 13.9253 38.9769 14.0176 39.1617 14.2023L41.309 16.3497C41.8941 16.9346 42.8463 16.9346 43.4315 16.3496L49.6551 10.126C50.0245 9.75637 50.6257 9.75659 50.9953 10.126C51.1742 10.3049 51.2728 10.5429 51.2728 10.7961C51.2728 11.0492 51.1742 11.2871 50.9952 11.4661Z" fill="#AA8D6D"/>
</svg>
