<svg width="58" height="57" viewBox="0 0 58 57" fill="none" xmlns="http://www.w3.org/2000/svg">
<g clip-path="url(#clip0_901_27834)">
<path d="M21.6199 16.6181C21.7616 16.8005 21.8111 17.0427 21.7523 17.2661L20.7106 21.2251C20.476 22.1169 20.7605 23.0488 21.4532 23.6572C21.9045 24.0536 22.4695 24.2605 23.0446 24.2605C23.3524 24.2605 23.6631 24.2012 23.9609 24.08L28.5291 22.2201C28.7107 22.1462 28.9108 22.1462 29.0921 22.22L29.3648 22.3311C29.7923 22.5053 30.28 22.3 30.454 21.8725C30.6282 21.4451 30.4229 20.9574 29.9955 20.7833L29.7224 20.6721C29.1344 20.4328 28.4867 20.4328 27.8989 20.6721L23.3306 22.532C22.9446 22.6889 22.6605 22.493 22.5564 22.4015C22.452 22.3099 22.221 22.0534 22.327 21.6505L23.3687 17.6916C23.5591 16.9682 23.3989 16.1835 22.9398 15.5927L20.2836 12.1731C20.1293 11.9748 20.0854 11.7238 20.163 11.4847C20.2404 11.2456 20.4234 11.0683 20.6648 10.9981L24.3913 9.91454C24.9568 9.75007 25.4421 9.3858 25.7578 8.8886L28.1804 5.07257C28.3788 4.75979 28.6874 4.72614 28.8107 4.72614C28.9341 4.72614 29.2425 4.7599 29.441 5.07257L31.8636 8.8886C32.1793 9.3858 32.6645 9.75007 33.23 9.91454L36.9565 10.998C37.198 11.0683 37.3809 11.2457 37.4584 11.4847C37.5359 11.7238 37.492 11.9747 37.3378 12.1732L34.6815 15.5926C34.2227 16.1834 34.0623 16.9679 34.2526 17.6915L35.2944 21.6505C35.4004 22.0534 35.1694 22.3099 35.0651 22.4014C34.9607 22.493 34.6765 22.6889 34.2906 22.532L33.2949 22.1266C32.8671 21.9527 32.3797 22.158 32.2058 22.5855C32.0317 23.013 32.2372 23.5006 32.6646 23.6746L33.6604 24.08C34.5144 24.4276 35.4752 24.2656 36.1681 23.6572C36.8609 23.0487 37.1455 22.1168 36.9108 21.2251L35.869 17.2662C35.8103 17.0426 35.8598 16.8004 36.0014 16.6179L38.6577 13.1986C39.1497 12.5653 39.2957 11.7319 39.0483 10.9691C38.8008 10.2062 38.1934 9.61702 37.4232 9.39294L33.6968 8.3095C33.5222 8.2588 33.3723 8.14626 33.275 7.99282L30.8524 4.1769C30.4064 3.47411 29.6432 3.05469 28.8111 3.05469H28.811C27.9787 3.05469 27.2155 3.47422 26.7694 4.17679L24.3468 7.99282C24.2495 8.14626 24.0996 8.2588 23.925 8.3095L20.1983 9.39316C19.4282 9.61713 18.8208 10.2063 18.5733 10.9692C18.3258 11.732 18.4719 12.5655 18.9639 13.1986L21.6199 16.6181Z" fill="#AA8D6D"/>
<path d="M38.3854 16.8874C38.2165 17.4081 38.3162 17.9769 38.652 18.4091L40.0136 20.1618L39.4797 22.1906C39.3195 22.7993 39.5138 23.4355 39.9868 23.8508C40.2947 24.1213 40.6805 24.2625 41.073 24.2625C41.2831 24.2625 41.4952 24.2221 41.6984 24.1394L44.0431 23.1848L46.3877 24.1394C46.9702 24.3765 47.6264 24.2663 48.0993 23.8509C48.5722 23.4355 48.7665 22.7993 48.6064 22.1907L48.0726 20.1618L49.434 18.4091C49.77 17.9768 49.8696 17.408 49.7008 16.8873C49.532 16.3666 49.1173 15.9644 48.5915 15.8114L46.68 15.2556L45.4367 13.2971C45.1323 12.8175 44.6113 12.5312 44.0431 12.5312C43.4751 12.5312 42.9542 12.8175 42.6496 13.2972L41.4064 15.2556L39.4948 15.8115C38.9688 15.9645 38.5541 16.3667 38.3854 16.8874ZM41.8804 16.8584C42.2665 16.7462 42.5977 16.4975 42.8131 16.1582L44.043 14.2206L45.2729 16.1582C45.4884 16.4975 45.8194 16.7462 46.2057 16.8585L48.0952 17.408L46.7463 19.1445C46.4329 19.5478 46.3234 20.0835 46.4535 20.5772L46.9792 22.5757L44.6654 21.6336C44.2641 21.4702 43.8221 21.4702 43.4206 21.6336L41.1066 22.5755L41.6325 20.5771C41.7624 20.0833 41.653 19.5479 41.3397 19.1447L39.9908 17.408L41.8804 16.8584Z" fill="#AA8D6D"/>
<path d="M9.4626 20.1618L8.92874 22.1907C8.76851 22.7994 8.96295 23.4356 9.43586 23.8509C9.74396 24.1214 10.1295 24.2625 10.5221 24.2625C10.7321 24.2625 10.9443 24.222 11.1474 24.1394L13.492 23.1848L15.8367 24.1394C16.4195 24.3768 17.0755 24.2663 17.5484 23.8508C18.0213 23.4353 18.2155 22.7992 18.0554 22.1907L17.5216 20.1618L18.883 18.4091C19.219 17.9768 19.3186 17.408 19.1498 16.8873C18.981 16.3666 18.5663 15.9644 18.0405 15.8114L16.129 15.2556L14.8857 13.2971C14.5813 12.8175 14.0603 12.5312 13.4922 12.5312C12.9241 12.5312 12.4032 12.8175 12.0986 13.2972L10.8554 15.2556L8.94379 15.8115C8.41806 15.9644 8.00343 16.3666 7.83461 16.8873C7.66568 17.408 7.76541 17.9768 8.10126 18.409L9.4626 20.1618ZM11.3295 16.8583C11.7156 16.7461 12.0468 16.4974 12.2622 16.1581L13.4921 14.2205L14.722 16.1581C14.9375 16.4974 15.2686 16.7461 15.6548 16.8584L17.5443 17.4079L16.1953 19.1446C15.8821 19.5478 15.7727 20.0833 15.9026 20.5771L16.4283 22.5755L14.1145 21.6335C13.9138 21.5518 13.703 21.5109 13.492 21.5109C13.2812 21.5109 13.0704 21.5517 12.8697 21.6335L10.5557 22.5755L11.0816 20.5773C11.2116 20.0833 11.1022 19.5477 10.7888 19.1446L9.43987 17.4079L11.3295 16.8583Z" fill="#AA8D6D"/>
<path d="M52.2076 18.5H51.8033C51.3416 18.5 50.9675 18.8741 50.9675 19.3357C50.9675 19.7974 51.3416 20.1714 51.8033 20.1714H52.2076C54.0379 20.1714 55.5269 21.6605 55.5269 23.4908V44.8724C55.5269 46.7027 54.0379 48.1917 52.2076 48.1917H43.6678C43.2061 48.1917 42.832 48.5658 42.832 49.0275C42.832 49.4891 43.2061 49.8632 43.6678 49.8632H52.2076C54.9595 49.8632 57.1984 47.6242 57.1984 44.8724V23.4908C57.1984 20.739 54.9595 18.5 52.2076 18.5Z" fill="#AA8D6D"/>
<path d="M40.1071 48.1916H33.015C32.5419 48.1916 32.0927 48.3966 31.7826 48.7539L28.7623 52.2349C28.7562 52.2419 28.7373 52.2636 28.6992 52.2636C28.6611 52.2636 28.6422 52.242 28.636 52.2348L25.3779 48.4797C25.2192 48.2967 24.9889 48.1916 24.7467 48.1916H5.19006C3.35971 48.1916 1.87067 46.7026 1.87067 44.8722V23.4907C1.87067 21.6605 3.35971 20.1714 5.18994 20.1714H5.72982C6.19148 20.1714 6.56555 19.7974 6.56555 19.3357C6.56555 18.8741 6.19148 18.5 5.72982 18.5H5.18994C2.43807 18.4999 0.199219 20.7387 0.199219 23.4907V44.8724C0.199219 47.6242 2.43818 49.8632 5.19006 49.8632H24.3653L27.3734 53.3302C27.707 53.7147 28.1903 53.9353 28.6993 53.9352C29.2082 53.9352 29.6914 53.7147 30.0249 53.3302L33.0332 49.8632H40.107C40.5686 49.8632 40.9427 49.4891 40.9427 49.0275C40.9427 48.5658 40.5686 48.1916 40.1071 48.1916Z" fill="#AA8D6D"/>
<path d="M50.8914 27.9219H11.5506C11.0889 27.9219 10.7148 28.2959 10.7148 28.7576C10.7148 29.2193 11.0889 29.5933 11.5506 29.5933H50.8914C51.353 29.5933 51.7271 29.2193 51.7271 28.7576C51.7271 28.2959 51.3529 27.9219 50.8914 27.9219Z" fill="#AA8D6D"/>
<path d="M50.8907 33.0078H6.7244C6.26274 33.0078 5.88867 33.3819 5.88867 33.8435C5.88867 34.3052 6.26274 34.6793 6.7244 34.6793H50.8906C51.3522 34.6793 51.7263 34.3052 51.7263 33.8435C51.7263 33.3819 51.3522 33.0078 50.8907 33.0078Z" fill="#AA8D6D"/>
<path d="M50.8907 38.0938H6.7244C6.26274 38.0938 5.88867 38.4678 5.88867 38.9295C5.88867 39.3911 6.26274 39.7652 6.7244 39.7652H50.8906C51.3522 39.7652 51.7263 39.3911 51.7263 38.9295C51.7263 38.4678 51.3522 38.0938 50.8907 38.0938Z" fill="#AA8D6D"/>
<path d="M50.8907 43.1875H6.7244C6.26274 43.1875 5.88867 43.5616 5.88867 44.0232C5.88867 44.4849 6.26274 44.8589 6.7244 44.8589H50.8906C51.3522 44.8589 51.7263 44.4849 51.7263 44.0232C51.7263 43.5616 51.3522 43.1875 50.8907 43.1875Z" fill="#AA8D6D"/>
</g>
<defs>
<clipPath id="clip0_901_27834">
<rect width="57" height="57" fill="white" transform="translate(0.199219)"/>
</clipPath>
</defs>
</svg>
