<svg width="506" height="19" viewBox="0 0 506 19" fill="none" xmlns="http://www.w3.org/2000/svg">
<g clip-path="url(#clip0_658_105847)">
<g clip-path="url(#clip1_658_105847)">
<path d="M259.525 9.86834C259.063 9.26079 258.35 8.8715 257.553 8.8715C257.306 8.8715 257.058 8.91425 256.809 8.99976V9.02676C255.996 7.77564 254.592 6.94531 252.99 6.94531C251.399 6.94531 250.002 7.76214 249.187 8.99751C248.937 8.912 248.69 8.86925 248.442 8.86925C247.646 8.86925 246.932 9.25854 246.471 9.86609L0.974609 11.5155L246.473 13.2077C246.935 13.8152 247.648 14.1618 248.444 14.1618C248.696 14.1618 248.946 14.119 249.198 14.0312L249.205 14.038C250.024 15.2576 251.413 16.0609 252.992 16.0609C254.583 16.0609 255.978 15.2441 256.795 14.011V14.038L256.802 14.0312C257.054 14.119 257.306 14.1618 257.556 14.1618C258.352 14.1618 259.065 13.8152 259.527 13.2077L505.023 11.5155L259.525 9.86834Z" fill="#A68A6C"/>
</g>
</g>
<defs>
<clipPath id="clip0_658_105847">
<rect width="504.049" height="13.5013" fill="white" transform="translate(0.976562 4.75)"/>
</clipPath>
<clipPath id="clip1_658_105847">
<rect width="504.049" height="13.5013" fill="white" transform="translate(0.976562 4.75)"/>
</clipPath>
</defs>
</svg>
