<svg width="22" height="23" viewBox="0 0 22 23" fill="none" xmlns="http://www.w3.org/2000/svg">
<path d="M21.11 11.2574C21.1103 11.0114 21.059 10.7684 20.9599 10.5463C20.8607 10.3242 20.7162 10.1288 20.537 9.97428L19.1772 8.76352L19.7999 7.03167C19.8806 6.80201 19.9127 6.55609 19.8939 6.31158C19.875 6.06708 19.8057 5.83008 19.6909 5.61764C19.5761 5.4052 19.4187 5.22261 19.23 5.083C19.0412 4.94339 18.8259 4.85024 18.5995 4.81025L16.8552 4.48829L16.5842 2.65563C16.5468 2.41353 16.4596 2.18331 16.329 1.98154C16.1983 1.77977 16.0275 1.61147 15.8287 1.48876C15.6299 1.36605 15.4081 1.29197 15.1793 1.27186C14.9505 1.25176 14.7204 1.28612 14.5056 1.37249L12.8445 2.02666L11.7527 0.5845C11.6034 0.40098 11.4189 0.25384 11.2119 0.153008C11.0048 0.0521764 10.7799 0 10.5523 0C10.3248 0 10.0999 0.0521764 9.89278 0.153008C9.6857 0.25384 9.50126 0.40098 9.35191 0.5845L8.21922 2.03768L6.59945 1.37249C6.38456 1.28606 6.15441 1.25164 5.92558 1.27171C5.69675 1.29179 5.47494 1.36585 5.2761 1.48857C5.07727 1.61129 4.90637 1.77961 4.7757 1.98142C4.64504 2.18322 4.55787 2.41349 4.52046 2.65563L4.21963 4.52052L2.50592 4.80945C2.27939 4.84946 2.06397 4.94264 1.87516 5.0823C1.68635 5.22195 1.52885 5.40461 1.41399 5.61712C1.29912 5.82963 1.22975 6.06671 1.21087 6.31131C1.19198 6.55591 1.22405 6.80194 1.30477 7.03171L1.91676 8.80765L0.566889 9.97428C0.389571 10.1301 0.246768 10.3261 0.148748 10.548C0.0507285 10.7699 -7.20333e-05 11.0122 7.66611e-08 11.2576C7.21866e-05 11.503 0.051015 11.7453 0.149165 11.9672C0.247315 12.189 0.390234 12.3848 0.567643 12.5406L1.92749 13.7513L1.30477 15.4831C1.22404 15.7128 1.19193 15.9587 1.21077 16.2032C1.22961 16.4478 1.29892 16.6848 1.41372 16.8972C1.52851 17.1096 1.68594 17.2922 1.87467 17.4319C2.0634 17.5715 2.27873 17.6646 2.50518 17.7046L4.24946 18.0266L4.52047 19.8592C4.55796 20.1013 4.64517 20.3314 4.77583 20.5332C4.90649 20.7349 5.07735 20.9031 5.27611 21.0258C5.47488 21.1485 5.69661 21.2226 5.92537 21.2428C6.15412 21.2629 6.38421 21.2286 6.59909 21.1424L8.26014 20.4882L9.35192 21.9304C9.49758 22.1201 9.6808 22.2729 9.88837 22.3779C10.0959 22.4828 10.3227 22.5373 10.5523 22.5373C10.7819 22.5373 11.0087 22.4828 11.2163 22.3779C11.4239 22.2729 11.6071 22.1201 11.7527 21.9304L12.8854 20.4772L14.5053 21.1424C14.7202 21.2288 14.9503 21.2631 15.1791 21.2431C15.4079 21.223 15.6297 21.1489 15.8286 21.0262C16.0274 20.9035 16.1983 20.7352 16.329 20.5334C16.4596 20.3316 16.5468 20.1013 16.5843 19.8592L16.8851 17.9943L18.5988 17.7054C18.8253 17.6654 19.0408 17.5722 19.2296 17.4326C19.4184 17.2929 19.5759 17.1103 19.6907 16.8977C19.8056 16.6852 19.875 16.4481 19.8939 16.2035C19.9127 15.9589 19.8807 15.7129 19.7999 15.4831L19.188 13.7072L20.5378 12.5406C20.7168 12.3859 20.8611 12.1904 20.9601 11.9684C21.0591 11.7463 21.1103 11.5034 21.11 11.2574Z" fill="#50286D"/>
<path d="M9.12431 15.0477C8.63721 15.0491 8.16296 14.8808 7.7733 14.5683L5.94213 13.1002C5.78216 12.9719 5.67643 12.7809 5.64819 12.5693C5.61994 12.3577 5.6715 12.1427 5.79153 11.9717C5.91155 11.8007 6.0902 11.6877 6.28818 11.6575C6.48616 11.6273 6.68726 11.6825 6.84722 11.8108L8.67802 13.2789C8.83672 13.4043 9.03488 13.4588 9.23051 13.4307C9.42613 13.4026 9.60384 13.2943 9.72598 13.1285L14.0946 7.12373C14.1554 7.04015 14.2311 6.97019 14.3172 6.91786C14.4033 6.86552 14.4982 6.83184 14.5965 6.81871C14.6948 6.80559 14.7946 6.8133 14.8901 6.84139C14.9856 6.86948 15.075 6.9174 15.1532 6.98243C15.2314 7.04745 15.2969 7.1283 15.3458 7.22036C15.3948 7.31242 15.4263 7.41389 15.4386 7.51897C15.4509 7.62405 15.4437 7.73068 15.4174 7.83278C15.3911 7.93489 15.3463 8.03046 15.2854 8.11404L10.9165 14.1188C10.7036 14.4092 10.4315 14.6439 10.1209 14.8048C9.81031 14.9658 9.46946 15.0489 9.12431 15.0477Z" fill="#F5F5F5"/>
</svg>
