<svg width="640" height="639" viewBox="0 0 640 639" fill="none" xmlns="http://www.w3.org/2000/svg">
<path d="M175.022 388.46H121.885L91.4727 236.846L140.126 214.492L175.022 388.46Z" fill="#C7C7C7"/>
<path d="M327.11 388.46H175.025L140.129 214.492H292.214L327.11 388.46Z" fill="#EBEBEB"/>
<path d="M147.743 307.113H66.3086V474.205H147.743V307.113Z" fill="#C7C7C7"/>
<path d="M366.193 474.205H343.945L310.793 307.113H366.193V474.205Z" fill="#C7C7C7"/>
<path d="M192.487 307.113H147.742V474.205H192.487V307.113Z" fill="#EBEBEB"/>
<path d="M410.94 307.113H366.195V474.205H410.94V307.113Z" fill="#EBEBEB"/>
<path d="M366.193 388.457H192.488V474.202H366.193V388.457Z" fill="#EBEBEB"/>
<path d="M366.193 351.391H192.488V388.808H366.193V351.391Z" fill="#EBEBEB"/>
<path d="M158.707 307.115L175.598 306.886L192.489 306.726L192.874 306.723L192.876 307.115L193.021 326.669L193.073 346.224C193.112 359.26 193.143 372.297 193.087 385.332C193.056 398.368 193.041 411.405 192.918 424.44C192.837 437.476 192.699 450.513 192.489 463.548C192.28 450.511 192.143 437.475 192.06 424.44C191.938 411.403 191.922 398.367 191.891 385.332C191.834 372.295 191.865 359.259 191.905 346.224L191.957 326.669L192.1 307.115L192.488 307.503L175.597 307.343L158.707 307.115Z" fill="#C7C7C7"/>
<path d="M366.196 307.113C366.459 320.198 366.583 333.282 366.685 346.367L366.834 385.62L366.687 424.874L366.51 444.501L366.197 464.127L365.884 444.501L365.705 424.874L365.559 385.62L365.708 346.367C365.809 333.283 365.933 320.198 366.196 307.113Z" fill="#C7C7C7"/>
<path d="M366.192 388.457C351.716 388.72 337.241 388.844 322.766 388.946L279.339 389.095L235.913 388.948L214.201 388.77L192.488 388.457L214.201 388.145L235.913 387.967L279.339 387.82L322.766 387.97C337.241 388.071 351.716 388.194 366.192 388.457Z" fill="#C7C7C7"/>
<path d="M366.192 351.39C351.716 351.653 337.241 351.777 322.766 351.879L279.339 352.028L235.913 351.881L214.201 351.704L192.488 351.391L214.201 351.078L235.913 350.901L279.339 350.754L322.766 350.902C337.241 351.003 351.716 351.127 366.192 351.39Z" fill="#C7C7C7"/>
<path d="M97.2595 474.207L96.1576 487.743L93.586 519.021H81.7945L79.223 487.743L78.1211 474.207H97.2595Z" fill="#C7C7C7"/>
<path d="M78.1211 474.207H97.2595L96.1576 487.743H79.223L78.1211 474.207Z" fill="#A6A6A6"/>
<path d="M179.685 474.207L178.582 487.743L176.012 519.021H164.22L161.649 487.743L160.547 474.207H179.685Z" fill="#C7C7C7"/>
<path d="M160.547 474.207H179.685L178.582 487.743H161.649L160.547 474.207Z" fill="#A6A6A6"/>
<path d="M316.404 474.207L315.302 487.743L312.731 519.021H300.939L298.368 487.743L297.266 474.207H316.404Z" fill="#C7C7C7"/>
<path d="M297.266 474.207H316.404L315.302 487.743H298.368L297.266 474.207Z" fill="#A6A6A6"/>
<path d="M398.853 474.207L397.751 487.743L395.18 519.021H383.388L380.817 487.743L379.715 474.207H398.853Z" fill="#C7C7C7"/>
<path d="M398.853 474.207L397.751 487.743H380.817L379.715 474.207H398.853Z" fill="#A6A6A6"/>
<path d="M282.941 123.629H151.207V215.812H282.941V123.629Z" stroke="#EBEBEB" stroke-width="0.862722" stroke-miterlimit="10"/>
<path d="M282.941 123.629H151.207V135.878H282.941V123.629Z" stroke="#EBEBEB" stroke-width="0.862722" stroke-miterlimit="10"/>
<path d="M162.701 129.843C162.701 131.545 161.322 132.924 159.62 132.924C157.918 132.924 156.539 131.545 156.539 129.843C156.539 128.141 157.918 126.762 159.62 126.762C161.322 126.762 162.701 128.141 162.701 129.843Z" fill="#C7C7C7"/>
<path d="M175.283 129.843C175.283 131.545 173.903 132.924 172.202 132.924C170.5 132.924 169.121 131.545 169.121 129.843C169.121 128.141 170.501 126.762 172.202 126.762C173.903 126.762 175.283 128.141 175.283 129.843Z" fill="#EBEBEB"/>
<path d="M184.785 132.926C186.488 132.926 187.868 131.546 187.868 129.844C187.868 128.142 186.488 126.762 184.785 126.762C183.083 126.762 181.703 128.142 181.703 129.844C181.703 131.546 183.083 132.926 184.785 132.926Z" fill="#AA8D6D"/>
<path d="M180.461 171.057C179.099 171.903 177.585 172.549 175.94 172.949C171.687 173.988 167.421 173.19 163.974 171.05C160.601 168.965 158.007 165.599 156.989 161.443C154.939 153.028 160.086 144.542 168.502 142.491C176.912 140.434 185.396 145.588 187.454 154.005C189.104 160.776 186.083 167.589 180.461 171.057Z" fill="#DBDBDB"/>
<path d="M176.986 155.926C176.986 158.562 174.85 160.697 172.216 160.697C169.581 160.697 167.445 158.561 167.445 155.926C167.445 153.292 169.581 151.156 172.216 151.156C174.85 151.156 176.986 153.292 176.986 155.926Z" fill="white"/>
<path d="M180.46 169.087V171.056C179.098 171.902 177.584 172.548 175.939 172.948C171.686 173.987 167.42 173.189 163.973 171.049V169.088C163.973 164.547 167.661 160.844 172.217 160.844C176.772 160.842 180.46 164.545 180.46 169.087Z" fill="white"/>
<path d="M268.414 206.632C267.052 207.479 265.538 208.126 263.893 208.524C259.64 209.564 255.374 208.766 251.927 206.624C248.555 204.539 245.96 201.175 244.942 197.018C242.892 188.602 248.039 180.116 256.456 178.066C264.865 176.009 273.349 181.162 275.408 189.579C277.058 196.351 274.038 203.164 268.414 206.632Z" fill="#DBDBDB"/>
<path d="M264.94 191.505C264.94 194.14 262.804 196.275 260.17 196.275C257.535 196.275 255.398 194.139 255.398 191.505C255.398 188.871 257.535 186.734 260.17 186.734C262.804 186.734 264.94 188.871 264.94 191.505Z" fill="white"/>
<path d="M268.413 204.664V206.631C267.051 207.478 265.537 208.125 263.892 208.524C259.639 209.563 255.373 208.765 251.926 206.624V204.662C251.926 200.121 255.615 196.418 260.17 196.418C264.725 196.419 268.413 200.122 268.413 204.664Z" fill="white"/>
<path d="M588.327 390.189C588.327 397.303 582.824 403.127 575.838 403.645V403.682H499.418C490.658 403.682 483.559 396.584 483.559 387.822C483.559 379.564 489.87 372.772 497.934 372.03C498.392 357.676 510.169 346.176 524.635 346.176C536.151 346.176 545.967 353.461 549.719 363.675C551.852 362.597 554.257 361.997 556.81 361.997C565.241 361.997 572.137 368.571 572.639 376.875C573.35 376.755 574.084 376.695 574.833 376.695C582.284 376.697 588.327 382.739 588.327 390.189Z" fill="#EBEBEB"/>
<path d="M331.64 591.438C450.956 591.438 547.681 576.566 547.681 558.219C547.681 539.873 450.956 525 331.64 525C212.323 525 115.598 539.873 115.598 558.219C115.598 576.566 212.323 591.438 331.64 591.438Z" fill="#EBEBEB"/>
<path d="M58.6406 519.024L124.018 518.714L189.396 518.601L320.15 518.387L450.905 518.599L516.283 518.711L581.66 519.024L516.283 519.337L450.905 519.449L320.15 519.661L189.396 519.447L124.018 519.334L58.6406 519.024Z" fill="#263238"/>
<path d="M111.126 373.96C111.568 367.51 112.357 361.051 113.856 354.755C115.211 349.069 117.131 343.256 120.718 338.557C123.993 334.266 128.698 330.846 134.167 330.177C139.434 329.532 144.381 331.879 148.32 335.198C153.202 339.309 156.94 344.752 160.449 350.028C164.374 355.93 167.713 362.062 170.927 368.367C171.033 368.574 170.713 368.75 170.61 368.542C167.959 363.215 164.698 358.036 161.241 353.197C157.972 348.625 154.481 344.068 150.45 340.134C146.835 336.605 142.241 333.303 137.001 333.137C131.789 332.971 126.978 335.897 123.84 339.916C120.331 344.407 118.546 350.017 117.209 355.483C115.741 361.483 115.008 367.619 114.507 373.768C113.478 386.419 113.199 399.144 112.913 411.829C112.75 419.007 112.653 426.187 112.588 433.368C112.555 437.006 112.526 440.643 112.499 444.281C112.473 447.786 112.656 451.341 112.079 454.803C111.961 455.509 110.805 455.442 110.686 454.769C110.107 451.49 110.249 448.122 110.203 444.799C110.156 441.352 110.111 437.903 110.081 434.455C110.021 427.751 109.986 421.047 110.005 414.343C110.045 400.892 110.207 387.384 111.126 373.96Z" fill="#263238"/>
<path d="M129.202 364.423C129.874 360.847 131.082 356.184 133.121 353.413C136.783 348.432 140.737 350.599 137.082 356.113C133.09 362.135 132.514 366.892 131.94 369.712C131.94 369.712 138.097 378.506 145.527 382.836C145.209 379.455 144.255 374.255 144.914 369.238C146.341 358.373 152.913 358.984 151.289 367.614C149.983 374.535 149.447 381.882 149.801 385.069C152.033 386.761 155.838 388.214 157.742 388.959C157.316 387.701 156.864 386.188 156.363 384.357C153.726 374.616 160.22 371.576 160.429 377.057C160.587 381.562 162.334 388.544 162.955 390.875C166.52 392.071 169.474 392.889 171.28 393.524C178.788 396.161 183.463 401.849 183.463 401.849C186.868 398.822 189.614 395.147 191.763 391.107C189.493 389.154 185.904 386.249 180.924 382.734C171.585 376.142 174.832 367.817 182.242 372.993C187.588 376.728 191.726 383.649 193.607 387.202C196.182 381.05 197.538 374.299 197.842 367.757C190.507 360.872 172.367 351.278 177.836 351.278C182.755 351.278 193.765 358.492 197.806 361.276C197.697 359.335 197.488 357.443 197.183 355.624C190.274 351.095 167.826 344.053 171.403 342.026C175.333 339.804 190.995 347.056 195.73 349.35C194.692 345.982 193.289 343.051 191.579 340.757C182.034 327.976 164.82 323.573 157.311 326.01C151.996 327.733 153.549 341.217 152.407 340.757C131.06 332.163 121.352 338.235 129.202 364.423ZM181.533 362.946C183.048 361.115 190.053 366.498 188.027 369.44C186.001 372.381 179.58 365.289 181.533 362.946ZM144.925 351.447C146.769 352.619 144.047 359.429 141.202 357.367C138.785 355.609 143.07 350.263 144.925 351.447Z" fill="#AA8D6D"/>
<path d="M147.721 353.535C148.686 351.63 149.691 349.735 150.789 347.904C151.835 346.16 152.951 344.304 154.315 342.789C154.01 342.415 153.717 342.033 153.404 341.665C153.276 341.516 153.496 341.304 153.626 341.453C153.985 341.861 154.324 342.279 154.672 342.693C154.739 342.733 154.794 342.79 154.82 342.868C156.14 344.449 157.382 346.077 158.569 347.739C160.666 348.182 162.74 348.855 164.769 349.534C166.863 350.235 168.938 350.963 170.973 351.822C171.186 351.912 171.08 352.262 170.868 352.168C168.852 351.276 166.807 350.413 164.717 349.707C162.74 349.039 160.729 348.524 158.726 347.959C159.378 348.878 160.018 349.806 160.632 350.749C164.392 351.83 168.069 353.546 171.595 355.22C175.299 356.98 178.865 359.025 182.413 361.077C182.614 361.193 182.424 361.505 182.223 361.385C178.749 359.305 175.128 357.531 171.462 355.815C168.029 354.208 164.474 352.887 161.012 351.358C169.729 364.962 174.959 380.661 181.947 395.195C182.049 395.407 181.719 395.581 181.631 395.37C179.497 390.272 177.039 385.306 174.715 380.292C172.629 375.79 170.592 371.265 168.504 366.764C167.892 365.446 167.264 364.132 166.624 362.82C167.006 370.086 166.851 377.478 168.041 384.66C168.084 384.917 167.702 384.963 167.685 384.699C167.181 376.935 165.813 369.291 165.868 361.483C165.868 361.438 165.899 361.418 165.91 361.382C164.431 358.413 162.855 355.483 161.153 352.634C158.263 359.435 155.227 366.337 153.88 373.64C153.839 373.863 153.473 373.763 153.534 373.535C155.498 366.215 157.319 358.886 160.845 352.121C158.982 349.043 156.95 346.075 154.705 343.272C153.737 345.078 152.493 346.788 151.393 348.514C150.316 350.202 149.261 351.9 148.266 353.638C146.14 357.352 144.273 361.139 142.814 365.163C142.733 365.384 142.377 365.269 142.468 365.058C144.13 361.187 145.816 357.295 147.721 353.535Z" fill="#263238"/>
<path d="M78.9986 370.073C84.5924 364.463 91.0953 357.098 99.7407 357.113C108.085 357.127 114.226 363.846 117.754 370.777C121.444 378.025 122.768 386.236 123.811 394.217C125.06 403.772 125.751 413.405 126.023 423.036C126.175 428.386 126.153 433.743 126.022 439.093C125.888 444.492 125.757 449.969 124.796 455.295C124.64 456.159 123.255 456.191 123.202 455.258C122.951 450.753 123.131 446.226 123.156 441.717C123.181 437.276 123.11 432.834 122.948 428.397C122.619 419.419 121.965 410.454 120.912 401.532C119.991 393.738 119.26 385.724 116.928 378.195C114.824 371.406 110.881 363.639 103.996 360.656C94.6027 356.586 85.4262 364.021 79.2782 370.302C79.1161 370.468 78.8352 370.238 78.9986 370.073Z" fill="#263238"/>
<path d="M50.4584 382.611V382.624C50.5005 383.771 50.5669 384.905 50.6448 386.013C53.1984 384.216 56.4084 382.585 59.8124 382.214C67.7517 381.37 67.2461 387.407 61.9421 387.661C56.8821 387.903 53.4895 388.762 51.047 389.843C52.3417 400.327 55.226 408.757 55.6589 408.871C56.0917 408.973 65.7982 408.277 76.6372 406.219C74.6645 402.012 70.1688 396.422 72.4568 395.97C74.8049 395.504 77.2551 400.495 78.5256 405.836C83.7542 404.78 89.1386 403.398 93.7837 401.636C90.2916 398.613 84.8931 394.85 86.9552 393.249C89.016 391.635 93.3023 396.941 95.87 400.791C98.4211 399.703 100.685 398.484 102.465 397.115C97.7597 390.203 86.2913 388.795 87.7877 383.799C89.3161 378.703 100.015 385.732 104.832 394.985C110.491 389.118 112.148 380.814 111.552 373.718C106.625 373.148 97.1418 374.187 97.8287 370.646C98.4748 367.279 105.367 367.781 110.977 369.847C110.285 366.629 109.116 363.887 107.685 362.048C102.49 355.379 86.6411 363.86 86.6411 363.86C86.6411 363.86 88.3367 347.929 82.291 345.175C78.8065 343.594 72.6598 343.606 66.4902 347.237C69.9504 347.524 74.1333 348.62 75.8123 351.02C77.9625 354.082 74.5713 355.747 72.4147 354.335C70.9004 353.331 68.0607 350.18 62.9457 349.764C60.959 351.411 59.0182 353.507 57.223 356.098C56.6382 356.92 56.0943 357.79 55.5516 358.732C60.5364 356.661 67.1337 355.6 74.1065 359.068C80.9784 362.48 77.1402 369.616 71.2272 366.844C65.3768 364.105 59.6847 361.346 53.418 362.916C51.1172 368.22 50.3537 374.501 50.4047 380.682C52.7554 378.981 56.2271 376.946 60.5836 375.797C67.4146 374.004 69.4793 378.085 61.9753 378.847C57.2064 379.331 53.1959 381.075 50.4584 382.611ZM58.7705 371.643C58.2981 369.429 63.1436 368.795 63.9506 370.59C64.6222 372.122 59.2302 373.857 58.7705 371.643ZM100.221 383.901C100.677 382.694 103.92 384.067 103.625 385.571C103.221 387.583 99.7784 385.108 100.221 383.901ZM77.3369 391.667C79.699 390.723 83.389 396.597 80.8137 397.941C78.2383 399.286 75.4063 392.443 77.3369 391.667Z" fill="#AA8D6D"/>
<path d="M56.5854 407.657C60.1465 401.704 63.6654 395.72 67.4027 389.876C69.1443 387.153 70.9676 384.486 72.8611 381.869C72.5751 381.811 72.2904 381.727 72.0133 381.668C71.5434 381.569 71.0697 381.478 70.596 381.395C69.5031 381.205 68.3999 381.046 67.2954 380.935C66.2561 380.829 65.2129 380.774 64.1685 380.76C63.0819 380.746 61.8957 380.711 60.8283 380.935C60.6942 380.963 60.6738 380.754 60.8002 380.758C61.9123 380.803 63.0513 380.656 64.1659 380.64C65.2474 380.625 66.3302 380.653 67.4103 380.717C68.4254 380.777 69.4341 380.878 70.439 381.032C70.9944 381.118 71.5473 381.215 72.0989 381.323C72.427 381.389 72.7743 381.436 73.0986 381.534C75.0266 378.882 77.0287 376.283 79.0972 373.738C72.8547 370.87 66.4323 368.508 59.6064 367.517C59.4915 367.501 59.5361 367.323 59.6498 367.342C66.4489 368.429 73.2697 370.186 79.4227 373.339C80.5604 371.943 81.7057 370.552 82.8574 369.167C84.1457 367.618 85.5234 366.105 86.6879 364.46C86.7645 364.353 86.9216 364.472 86.8322 364.566C85.2157 366.291 83.7537 368.195 82.3135 370.098C82.325 370.103 82.3352 370.095 82.3467 370.103C84.9182 371.823 87.2816 373.874 89.5927 375.922C91.9599 378.022 94.2735 380.192 96.5182 382.423C96.6012 382.505 96.4761 382.636 96.3931 382.553C94.1727 380.347 91.8718 378.241 89.4637 376.24C87.0582 374.242 84.5262 372.406 82.1066 370.427C82.0939 370.417 82.0977 370.403 82.0888 370.391C81.5359 371.123 80.9856 371.853 80.4302 372.572C80.1493 372.936 79.8722 373.302 79.5926 373.666C79.5785 373.698 79.5568 373.72 79.5326 373.745C78.6056 374.951 77.6837 376.159 76.7682 377.373C77.8893 378.875 78.7179 380.648 79.5198 382.337C80.3178 384.018 81.0111 385.753 81.6508 387.498C82.9749 391.113 83.8648 394.883 84.6207 398.653C84.6437 398.766 84.4688 398.819 84.4483 398.705C83.7346 394.954 82.5586 391.335 81.2052 387.77C80.5144 385.949 79.7266 384.175 78.9133 382.405C78.174 380.795 77.2777 379.247 76.5856 377.619C75.7863 378.682 74.9922 379.747 74.2107 380.82C73.9835 381.133 73.7677 381.452 73.5417 381.765C73.5762 381.835 73.5544 381.925 73.4638 381.929C73.451 381.93 73.4395 381.926 73.4268 381.927C70.9804 385.343 68.6527 388.839 66.3876 392.376C66.5421 392.603 66.6072 392.884 66.6979 393.149C66.8434 393.578 66.9801 394.011 67.1065 394.447C67.3606 395.32 67.5661 396.202 67.727 397.097C67.8789 397.938 67.999 398.783 68.082 399.632C68.1739 400.568 68.0858 401.602 68.2952 402.514C68.3284 402.657 68.0973 402.667 68.1215 402.518C68.2607 401.667 68.0424 400.676 67.9236 399.829C67.7947 398.909 67.6223 397.995 67.4103 397.091C67.2188 396.273 66.9979 395.458 66.7553 394.654C66.634 394.25 66.5038 393.849 66.3659 393.452C66.2931 393.241 66.1897 393.019 66.1182 392.794C65.0584 394.457 64.0076 396.124 62.9746 397.803C60.9253 401.132 58.8939 404.472 56.8497 407.802C56.7501 407.973 56.4833 407.828 56.5854 407.657Z" fill="#263238"/>
<path d="M111.496 453.375C111.588 450.002 112.123 446.604 112.487 443.25C112.852 439.879 113.235 436.511 113.596 433.14C114.289 426.643 114.676 420.001 116.204 413.633C117.518 408.154 119.932 402.906 124.14 399.044C126.268 397.09 128.976 395.489 131.922 395.329C134.936 395.166 137.715 396.21 140.187 397.878C143.001 399.776 145.171 402.469 147.137 405.2C149.163 408.016 150.954 410.924 152.555 414C152.617 414.117 152.434 414.188 152.37 414.079C149.413 408.953 145.337 404.53 140.646 400.942C138.486 399.29 136.008 398.05 133.256 397.862C130.528 397.676 128.095 398.978 126.091 400.721C122.155 404.141 119.879 409.171 118.523 414.111C116.915 419.968 116.396 426.129 115.592 432.133C115.115 435.701 114.66 439.274 114.189 442.843C113.721 446.393 113.424 450.035 112.67 453.537C112.508 454.291 111.476 454.134 111.496 453.375Z" fill="#263238"/>
<path d="M128.091 427.177C129.064 428.536 130.307 429.772 131.761 430.925C131.206 427.632 130.534 421.783 132.196 418.669C134.777 413.832 137.832 416.244 136.295 420.449C134.077 426.451 133.787 430.506 133.81 432.37C137.082 434.523 141.03 436.262 145.017 437.658C144.663 436.04 144.441 434.03 144.648 431.889C145.163 426.719 149.122 426.815 148.093 432.194C147.641 434.519 147.545 436.756 147.55 438.511C156.581 441.343 165.015 442.45 165.015 442.45C168.377 437.972 170.735 433.669 172.244 429.582C168.036 428.527 159.514 428.287 159.697 425.28C159.939 421.233 168.194 424.349 173.023 427.285C174.21 423.41 174.628 419.753 174.481 416.396C172.595 415.778 169.11 415.012 162.875 414.473C154.208 413.725 154.634 408.812 160.915 408.924C165.548 409.008 171.408 411.845 174.186 413.32C172.378 401.534 163.387 393.979 156.177 393.691C144.057 393.201 148.417 408.286 148.417 408.286C148.417 408.286 140.206 402.507 132.456 402.659C124.722 402.825 119.804 415.648 128.091 427.177ZM160.463 405.374C160.193 403.679 165.602 403.27 165.883 405.447C166.207 407.891 160.737 407.101 160.463 405.374ZM169.166 423.069C169.055 421.959 171.39 421.765 171.917 423.163C172.271 424.072 169.259 424.164 169.166 423.069ZM140.063 424.102C141.89 424.358 142.928 430.89 139.785 430.762C137.385 430.661 138.514 423.881 140.063 424.102Z" fill="#AA8D6D"/>
<path d="M142.591 431.352C142.892 430.539 143.162 429.714 143.419 428.883C143.182 429.723 142.973 430.566 142.817 431.413C142.785 431.581 142.531 431.514 142.591 431.352Z" fill="#263238"/>
<path d="M145.79 420.856C146.358 419.182 146.995 417.528 147.646 415.884C147.994 415.006 148.354 414.136 148.738 413.273C149.062 412.547 149.332 411.722 149.818 411.086C149.447 410.392 149.098 409.688 148.838 408.972C148.812 408.903 148.9 408.85 148.949 408.907C149.873 409.985 150.589 411.344 151.31 412.569C151.647 413.141 151.966 413.721 152.297 414.297C152.977 414.338 153.669 414.491 154.336 414.614C155.062 414.747 155.786 414.895 156.508 415.057C157.229 415.219 157.949 415.386 158.668 415.559C159.382 415.73 160.092 415.967 160.817 416.077C160.985 416.103 160.916 416.367 160.756 416.302C160.038 416.012 159.242 415.875 158.488 415.712C157.792 415.561 157.095 415.439 156.39 415.338C155.687 415.237 154.979 415.15 154.272 415.079C153.743 415.025 153.203 414.998 152.669 414.949C152.958 415.457 153.258 415.96 153.54 416.473C153.585 416.553 153.624 416.636 153.668 416.718C154.25 416.67 154.835 416.82 155.408 416.924C156.035 417.036 156.659 417.155 157.28 417.293C158.544 417.572 159.804 417.871 161.052 418.22C163.674 418.951 166.265 419.789 168.852 420.634C168.995 420.681 168.904 420.9 168.761 420.851C166.195 419.974 163.572 419.273 160.927 418.677C159.687 418.397 158.447 418.112 157.203 417.855C156.58 417.726 155.958 417.589 155.335 417.457C154.855 417.357 154.351 417.299 153.887 417.138C155.222 419.603 156.478 422.106 157.631 424.66C160.144 430.222 162.261 435.951 164.416 441.657C164.47 441.799 164.25 441.892 164.199 441.749C162.184 436.046 159.64 430.558 156.979 425.131C156.495 424.144 155.996 423.165 155.506 422.18C155.467 422.38 155.417 422.58 155.379 422.783C155.254 423.457 155.135 424.131 155.021 424.808C154.794 426.16 154.564 427.511 154.361 428.867C153.953 431.61 153.29 434.508 153.384 437.29C153.391 437.465 153.124 437.455 153.151 437.29C153.368 435.947 153.368 434.545 153.452 433.189C153.54 431.771 153.645 430.353 153.81 428.941C153.968 427.58 154.142 426.22 154.368 424.868C154.48 424.193 154.599 423.517 154.723 422.843C154.813 422.353 154.835 421.797 155.103 421.377C154.393 419.954 153.69 418.526 152.971 417.105C152.297 415.773 151.616 414.444 150.924 413.121C150.632 412.563 150.314 411.998 150.002 411.428C149.825 412.129 149.467 412.805 149.198 413.469C148.887 414.233 148.575 414.997 148.26 415.761C147.566 417.451 146.92 419.159 146.274 420.869C145.358 423.293 144.346 425.776 143.59 428.3C144.333 425.823 144.96 423.302 145.79 420.856Z" fill="#263238"/>
<path d="M143.418 428.883C143.473 428.686 143.535 428.492 143.593 428.297C143.535 428.492 143.478 428.689 143.418 428.883Z" fill="#263238"/>
<path d="M96.8633 446.523L97.5413 464.565L99.2854 511.066H137.447L139.191 464.565L139.871 446.523H96.8633Z" fill="#37474F"/>
<path d="M96.8633 446.523L97.5413 464.565H139.191L139.871 446.523H96.8633Z" fill="#263238"/>
<path d="M94.1481 453.82H142.582V439.233H94.1481V453.82Z" fill="#37474F"/>
<path d="M134.356 511.074H127.656V518.711H134.356V511.074Z" fill="#37474F"/>
<path d="M134.356 511.074H127.656V514.893H134.356V511.074Z" fill="#263238"/>
<path d="M109.068 511.074H102.375V518.711H109.068V511.074Z" fill="#37474F"/>
<path d="M109.068 511.074H102.375V514.893H109.068V511.074Z" fill="#263238"/>
<path d="M374.707 186.772C371.294 195.437 369.37 204.391 368.82 213.663C368.689 213.668 368.583 213.679 368.477 213.679C360.75 213.68 353.021 213.68 345.295 213.679C345.195 213.679 345.098 213.667 345 213.662V213.001C345.065 212.392 345.134 211.784 345.192 211.173C345.483 208.003 346.021 204.88 346.767 201.788C347.992 196.699 349.78 191.821 352.061 187.114C352.191 186.842 352.344 186.766 352.633 186.766C359.855 186.773 367.075 186.772 374.297 186.772H374.707Z" fill="#455A64"/>
<path d="M373.987 246.848H373.605C366.438 246.848 359.27 246.847 352.103 246.856C351.82 246.856 351.691 246.765 351.568 246.511C349.028 241.234 347.236 235.712 346.138 229.964C345.608 227.197 345.239 224.403 345.061 221.588C345.055 221.496 345.022 221.4 345 221.302V220.645C345.119 220.635 345.237 220.617 345.359 220.617C353.04 220.617 360.727 220.617 368.408 220.617C368.833 220.617 368.813 220.618 368.843 221.046C368.989 222.959 369.115 224.874 369.299 226.782C369.592 229.818 370.108 232.82 370.763 235.794C371.557 239.435 372.595 243.006 373.877 246.505C373.914 246.604 373.942 246.709 373.987 246.848Z" fill="#455A64"/>
<path d="M466.025 253.782C465.949 253.915 465.895 254.014 465.835 254.108C464.013 256.977 461.872 259.601 459.632 262.15C456.897 265.265 453.846 268.028 450.546 270.526C447.294 272.987 443.843 275.127 440.191 276.942C436.674 278.69 433.025 280.112 429.249 281.199C426.257 282.062 423.217 282.698 420.135 283.141C419.836 283.184 419.536 283.241 419.239 283.291H418.71C418.557 283.192 418.405 283.095 418.203 282.968C418.419 282.815 418.599 282.681 418.784 282.557C425.494 277.963 431.257 272.4 436.042 265.819C438.732 262.121 441.081 258.219 443.092 254.116C443.212 253.863 443.352 253.776 443.635 253.777C450.967 253.784 458.301 253.782 465.631 253.782H466.025Z" fill="#455A64"/>
<path d="M444.13 213.648H413.391V186.787C413.514 186.782 413.631 186.772 413.746 186.772C421.625 186.772 429.508 186.773 437.39 186.766C437.654 186.764 437.77 186.847 437.874 187.084C440.09 192.146 441.712 197.398 442.763 202.824C443.307 205.645 443.717 208.484 443.946 211.347C444.005 212.104 444.068 212.859 444.13 213.648Z" fill="#455A64"/>
<path d="M443.945 220.818C443.916 221.454 443.91 222.086 443.855 222.714C443.719 224.21 443.615 225.709 443.405 227.197C443.114 229.255 442.801 231.313 442.39 233.354C441.484 237.849 440.129 242.213 438.405 246.464C438.292 246.748 438.164 246.86 437.842 246.86C429.774 246.847 421.707 246.848 413.639 246.848H413.203V220.816L443.945 220.818Z" fill="#455A64"/>
<path d="M406.458 186.948V213.849H376.438C376.482 213.166 376.501 212.5 376.572 211.836C376.725 210.333 376.847 208.819 377.085 207.327C377.453 205.048 377.846 202.769 378.334 200.51C379.319 195.952 380.804 191.547 382.67 187.271C382.782 187.015 382.917 186.941 383.182 186.941C390.812 186.949 398.441 186.948 406.071 186.948H406.458Z" fill="#455A64"/>
<path d="M406.49 221.173C406.481 229.605 406.483 238.038 406.483 246.467V246.849H406.081C398.219 246.849 390.358 246.848 382.498 246.857C382.212 246.857 382.085 246.767 381.972 246.503C380.157 242.12 378.76 237.604 377.885 232.947C377.436 230.558 377.091 228.145 376.79 225.734C376.59 224.16 376.547 222.564 376.438 220.977C376.435 220.936 376.444 220.891 376.45 220.808C376.567 220.802 376.681 220.793 376.799 220.793C386.571 220.793 396.34 220.794 406.111 220.785C406.421 220.785 406.49 220.876 406.49 221.173Z" fill="#455A64"/>
<path d="M476.729 213.842H451.539C450.991 204.531 449.096 195.517 445.668 186.776H446.063C453.755 186.776 461.451 186.777 469.146 186.77C469.425 186.77 469.566 186.845 469.695 187.098C472.392 192.449 474.325 198.063 475.502 203.939C476.127 207.061 476.517 210.21 476.727 213.382C476.738 213.528 476.729 213.67 476.729 213.842Z" fill="#455A64"/>
<path d="M476.753 220.617C476.725 221.225 476.71 221.803 476.668 222.376C476.503 224.653 476.235 226.916 475.839 229.161C474.913 234.393 473.348 239.427 471.211 244.287C470.87 245.07 470.494 245.838 470.146 246.616C470.067 246.792 469.966 246.855 469.772 246.855C462.057 246.848 454.341 246.848 446.627 246.848C446.553 246.848 446.48 246.838 446.375 246.832C446.657 246.025 446.934 245.242 447.204 244.459C448.567 240.452 449.595 236.356 450.32 232.19C450.848 229.164 451.223 226.118 451.399 223.053C451.444 222.332 451.49 221.607 451.522 220.885C451.528 220.692 451.583 220.597 451.786 220.616C451.865 220.625 451.942 220.617 452.019 220.617H476.753Z" fill="#455A64"/>
<path d="M465.338 179.917C465.322 179.951 465.306 179.984 465.289 180.02H464.969C457.623 180.02 450.28 180.019 442.937 180.024C442.677 180.024 442.532 179.958 442.407 179.712C439.438 173.853 435.837 168.418 431.469 163.508C428.928 160.653 426.101 158.103 423.077 155.772C421.576 154.615 420.017 153.532 418.482 152.419C418.403 152.363 418.327 152.303 418.227 152.227C418.339 152.149 418.426 152.091 418.532 152.018C418.488 151.879 418.447 151.736 418.386 151.543C426.23 152.456 433.663 154.642 440.662 158.23C450.712 163.378 459.049 170.495 465.338 179.917Z" fill="#455A64"/>
<path d="M402.194 282.985C401.921 283.033 401.732 283.11 401.556 283.088C399.132 282.777 396.74 282.294 394.374 281.693C389.943 280.564 385.677 278.987 381.586 276.956C376.9 274.625 372.558 271.774 368.555 268.402C365.722 266.014 363.086 263.425 360.718 260.569C358.94 258.419 357.32 256.155 355.83 253.796C355.798 253.742 355.774 253.685 355.727 253.587H356.089C362.929 253.587 369.764 253.588 376.604 253.578C376.88 253.578 377.004 253.676 377.121 253.91C379.273 258.23 381.76 262.342 384.661 266.201C387.313 269.726 390.288 272.962 393.498 275.985C396.155 278.489 398.982 280.777 402.004 282.825C402.038 282.848 402.07 282.883 402.194 282.985Z" fill="#455A64"/>
<path d="M401.918 152.198C400.983 152.883 399.877 153.66 398.81 154.48C395.2 157.245 391.937 160.379 388.872 163.733C384.748 168.243 381.264 173.196 378.439 178.613C378.263 178.955 378.105 179.306 377.908 179.633C377.852 179.733 377.703 179.825 377.59 179.833C377.219 179.856 376.845 179.84 376.469 179.84H356.414C367.588 164.065 382.593 154.581 401.685 151.684C401.643 151.77 401.6 151.855 401.556 151.943C401.688 152.032 401.822 152.128 401.918 152.198Z" fill="#455A64"/>
<path d="M434.959 253.801C432.102 258.811 428.724 263.377 424.807 267.537C421.319 271.237 417.516 274.566 413.211 277.375V253.801H434.959Z" fill="#455A64"/>
<path d="M406.453 253.809V276.928C397.621 270.845 390.743 263.131 385.59 253.809H406.453Z" fill="#455A64"/>
<path d="M434.275 179.817H413.395V157.789C417.705 160.612 421.613 163.86 425.109 167.599C428.596 171.329 431.605 175.417 434.275 179.817Z" fill="#455A64"/>
<path d="M406.455 158.477V179.999H386.414C391.492 171.31 397.997 164.032 406.455 158.477Z" fill="#455A64"/>
<path d="M281.825 85.4609H195.414V134.25H281.825V85.4609Z" fill="#AA8D6D"/>
<path d="M210.029 134.25L195.414 149.245V134.25H210.029Z" fill="#AA8D6D"/>
<path d="M263.247 92.3945H201.879V94.1987H263.247V92.3945Z" fill="white"/>
<path d="M243.931 97.9141H201.879V99.7182H243.931V97.9141Z" fill="white"/>
<path d="M275.357 103.434H201.879V105.238H275.357V103.434Z" fill="white"/>
<path d="M227.156 108.953H201.879V110.757H227.156V108.953Z" fill="white"/>
<path d="M259.532 114.477H201.879V116.281H259.532V114.477Z" fill="white"/>
<path d="M263.247 119.992H201.879V121.796H263.247V119.992Z" fill="white"/>
<path d="M247.855 125.512H201.879V127.316H247.855V125.512Z" fill="white"/>
<path d="M212.46 185.328H298.871V149.625H212.46V185.328Z" fill="#37474F"/>
<path d="M284.258 185.332L298.872 200.327V185.332H284.258Z" fill="#37474F"/>
<path d="M272.983 155.535H218.93V157.339H272.983V155.535Z" fill="white"/>
<path d="M287.738 161.055H218.93V162.859H287.738V161.055Z" fill="white"/>
<path d="M268.939 166.574H218.93V168.378H268.939V166.574Z" fill="white"/>
<path d="M281.825 172.094H218.93V173.898H281.825V172.094Z" fill="white"/>
<path d="M260.171 177.617H218.93V179.421H260.171V177.617Z" fill="white"/>
<path d="M562.35 264.438H520.188V306.6H562.35V264.438Z" fill="#455A64"/>
<path d="M537.352 289.984C535.382 289.984 533.58 289.984 531.699 289.984C531.699 287.775 531.699 285.693 531.699 283.493C533.534 283.493 535.332 283.493 537.243 283.493C537.269 283 537.297 282.616 537.306 282.231C537.345 280.527 537.276 278.813 537.435 277.12C537.783 273.396 540.07 270.765 543.755 270.256C546.053 269.938 548.431 270.197 550.833 270.197C550.833 272.211 550.833 274.049 550.833 276.104C549.976 276.104 549.123 276.086 548.272 276.109C547.511 276.129 546.731 276.096 545.998 276.261C544.954 276.495 544.24 277.206 544.197 278.314C544.132 279.971 544.18 281.634 544.18 283.432C546.314 283.432 548.396 283.432 550.627 283.432C550.355 285.554 550.123 287.528 549.816 289.489C549.787 289.679 549.296 289.919 549.013 289.927C547.458 289.97 545.901 289.947 544.215 289.947C544.215 295.53 544.215 301.02 544.215 306.602C541.899 306.602 539.713 306.602 537.352 306.602C537.352 301.095 537.352 295.602 537.352 289.984Z" fill="white"/>
<path d="M539.424 86.7227H497.262V128.885H539.424V86.7227Z" fill="#455A64"/>
<path d="M533.852 99.2344C533.834 95.0132 531.198 92.2846 527.014 92.2438C521.226 92.1863 515.433 92.1825 509.646 92.2438C505.552 92.2872 502.898 94.9992 502.836 99.085C502.797 101.973 502.829 104.866 502.829 107.755C502.829 110.582 502.811 113.412 502.832 116.239C502.868 120.554 505.501 123.313 509.772 123.356C515.499 123.418 521.229 123.421 526.956 123.356C531.144 123.309 533.826 120.555 533.848 116.385C533.88 110.67 533.877 104.951 533.852 99.2344ZM531.082 116.437C531.053 119.106 529.616 120.582 526.944 120.6C521.217 120.635 515.491 120.635 509.764 120.6C507.082 120.586 505.63 119.112 505.616 116.455C505.59 110.677 505.59 104.9 505.616 99.1233C505.626 96.4764 507.107 94.957 509.75 94.9391C515.477 94.8996 521.203 94.8996 526.93 94.9391C529.579 94.957 531.053 96.4701 531.082 99.1093C531.115 101.997 531.09 104.887 531.09 107.775C531.09 110.659 531.114 113.548 531.082 116.437Z" fill="white"/>
<path d="M518.361 99.6641C513.945 99.6539 510.321 103.24 510.278 107.679C510.234 112.168 513.71 115.788 518.151 115.875C522.701 115.962 526.372 112.418 526.416 107.889C526.463 103.357 522.861 99.6743 518.361 99.6641ZM518.26 113.167C515.375 113.109 512.976 110.695 512.946 107.831C512.917 104.877 515.353 102.448 518.347 102.448C521.334 102.448 523.778 104.876 523.752 107.827C523.727 110.756 521.19 113.224 518.26 113.167Z" fill="white"/>
<path d="M528.877 99.4695C528.79 100.606 528.062 101.2 526.944 101.146C525.717 101.089 525.09 100.335 525.18 99.1261C525.263 97.9935 526.003 97.4675 527.135 97.4023C528.287 97.5977 528.968 98.2527 528.877 99.4695Z" fill="white"/>
<path d="M549.053 181.348H506.891V223.51H549.053V181.348Z" fill="#AA8D6D"/>
<path d="M512.254 218.029C512.927 215.606 513.524 213.355 514.19 211.122C514.405 210.396 514.347 209.818 514.003 209.125C509.312 199.668 515.537 188.238 526.05 186.954C535.714 185.773 543.891 193.062 543.684 202.674C543.514 210.551 536.829 217.344 528.922 217.697C526.224 217.819 523.657 217.346 521.189 216.235C520.76 216.043 520.17 216.012 519.707 216.123C517.283 216.703 514.878 217.351 512.254 218.029ZM516.035 214.361C517.576 213.963 518.877 213.583 520.201 213.31C520.634 213.221 521.187 213.285 521.575 213.488C523.551 214.523 525.626 215.085 527.862 215.124C535.891 215.266 542.358 207.808 540.828 199.988C539.771 194.579 536.446 191.032 531.078 189.802C525.571 188.541 520.885 190.316 517.554 194.865C514.297 199.313 514.21 204.107 516.871 208.956C517.103 209.38 517.165 210.001 517.066 210.481C516.808 211.732 516.418 212.956 516.035 214.361Z" fill="white"/>
<path d="M521.193 196.028C522.252 194.601 523.675 194.883 524.417 196.459C524.706 197.075 524.775 197.282 525.06 197.986C525.489 199.045 525.392 199.759 524.627 200.445C524.071 200.944 524.123 201.382 524.509 201.955C525.71 203.739 527.265 205.077 529.237 205.951C529.836 206.216 530.23 206.156 530.669 205.633C532.038 203.997 532.058 204.014 533.992 204.924C534.214 205.029 534.436 205.136 534.657 205.243C536.142 205.956 536.366 207.291 535.159 208.467C533.925 209.669 532.43 209.942 530.796 209.528C526.624 208.47 523.638 205.845 521.329 202.335C520.627 201.266 520.1 200.131 520.143 198.807C520.282 197.58 520.616 196.806 521.193 196.028Z" fill="white"/>
<path d="M470.311 276.867C503.137 244.041 503.137 190.819 470.311 157.993C437.485 125.167 384.263 125.167 351.437 157.993C318.611 190.819 318.611 244.041 351.437 276.867C384.263 309.693 437.485 309.693 470.311 276.867Z" stroke="#AA8D6D" stroke-width="0.862722" stroke-miterlimit="10" stroke-dasharray="2.59 2.59"/>
<path d="M430.672 136.229L457.882 109.02H497.265" stroke="#AA8D6D" stroke-width="0.862722" stroke-miterlimit="10" stroke-dasharray="2.59 2.59"/>
<path d="M494.934 203.797H510.276" stroke="#AA8D6D" stroke-width="0.862722" stroke-miterlimit="10" stroke-dasharray="2.59 2.59"/>
<path d="M481.867 262.91L503.457 284.5H520.189" stroke="#AA8D6D" stroke-width="0.862722" stroke-miterlimit="10" stroke-dasharray="2.59 2.59"/>
<path d="M430.518 118.543C429.509 108.41 422.526 98.3242 410.253 98.3242C397.994 98.3242 391.013 108.41 390.004 118.543C388.453 134.184 399.003 148.35 410.253 161.276C421.517 148.35 432.069 134.183 430.518 118.543ZM410.253 129.792C404.124 129.792 399.159 124.826 399.159 118.697C399.159 112.569 404.124 107.603 410.253 107.603C416.397 107.603 421.363 112.569 421.363 118.697C421.363 124.826 416.397 129.792 410.253 129.792Z" fill="#AA8D6D"/>
<path d="M498.235 270.469H413.211V328.647H498.235V270.469Z" fill="#AA8D6D"/>
<path d="M413.211 274.727C416.861 276.798 420.451 278.967 424.072 281.084C427.67 283.238 431.263 285.4 434.838 287.589C442 291.952 449.105 296.403 456.199 300.871H455.245C462.339 296.401 469.445 291.95 476.605 287.587C480.181 285.396 483.774 283.234 487.372 281.081C490.994 278.966 494.583 276.798 498.234 274.727C494.799 277.138 491.303 279.453 487.839 281.821C484.352 284.151 480.86 286.472 477.35 288.764C470.34 293.367 463.275 297.882 456.198 302.379L455.72 302.681L455.244 302.379C448.168 297.881 441.103 293.366 434.093 288.763C430.583 286.471 427.09 284.15 423.604 281.819C420.143 279.452 416.647 277.137 413.211 274.727Z" fill="white"/>
<path d="M413.418 318.304C415.997 316.052 418.679 313.942 421.394 311.885C424.104 309.818 426.873 307.837 429.654 305.873C432.454 303.936 435.267 302.017 438.139 300.182C441.005 298.34 443.906 296.548 446.91 294.902C444.333 297.157 441.653 299.267 438.937 301.324C436.227 303.389 433.458 305.371 430.676 307.334C427.874 309.269 425.061 311.188 422.19 313.022C419.322 314.864 416.42 316.656 413.418 318.304Z" fill="white"/>
<path d="M498.03 318.304C495.028 316.657 492.126 314.864 489.26 313.022C486.387 311.188 483.574 309.269 480.774 307.334C477.992 305.371 475.222 303.389 472.513 301.324C469.797 299.267 467.117 297.157 464.539 294.902C467.542 296.548 470.444 298.34 473.311 300.182C476.184 302.016 478.995 303.935 481.795 305.873C484.576 307.838 487.346 309.82 490.055 311.885C492.77 313.942 495.45 316.05 498.03 318.304Z" fill="white"/>
<path d="M498.197 349.245L503.603 362.297L498.204 364.531L492.769 351.39L483.848 358.312V321.543L509.587 347.546L498.197 349.245Z" fill="#263238"/>
<path d="M483.846 317.534C483.588 316.917 483.531 316.301 483.52 315.685C483.53 315.068 483.587 314.453 483.846 313.836C484.106 314.453 484.163 315.068 484.173 315.685C484.163 316.301 484.104 316.918 483.846 317.534Z" fill="#263238"/>
<path d="M480.666 318.853C480.048 318.599 479.572 318.205 479.127 317.777C478.698 317.334 478.304 316.858 478.051 316.238C478.67 316.491 479.146 316.886 479.589 317.315C480.017 317.759 480.412 318.235 480.666 318.853Z" fill="#263238"/>
<path d="M479.346 322.038C478.729 322.296 478.114 322.353 477.497 322.365C476.881 322.356 476.265 322.297 475.648 322.038C476.265 321.779 476.881 321.721 477.497 321.711C478.113 321.722 478.729 321.78 479.346 322.038Z" fill="#263238"/>
<path d="M480.666 325.219C480.412 325.837 480.017 326.313 479.589 326.757C479.146 327.186 478.67 327.581 478.051 327.834C478.304 327.214 478.698 326.738 479.127 326.295C479.57 325.866 480.046 325.472 480.666 325.219Z" fill="#263238"/>
<path d="M488.352 322.038C488.968 321.78 489.584 321.722 490.2 321.711C490.817 321.721 491.433 321.779 492.049 322.038C491.433 322.297 490.817 322.356 490.2 322.365C489.584 322.353 488.968 322.296 488.352 322.038Z" fill="#263238"/>
<path d="M487.031 318.853C487.285 318.235 487.68 317.759 488.108 317.315C488.551 316.886 489.027 316.491 489.646 316.238C489.393 316.858 488.999 317.334 488.57 317.777C488.126 318.206 487.649 318.6 487.031 318.853Z" fill="#263238"/>
<path d="M183.347 572.713C184.3 568.526 247.134 466.71 251.869 464.413C252.408 464.12 286.715 483.925 286.715 483.925C288.21 485.567 348.054 466.844 348.054 466.844L355.679 540.464L244.199 548.694C244.199 548.694 230.013 558.96 216.954 567.465C216.931 567.47 216.922 567.485 216.907 567.476C208.873 572.741 201.742 577.21 199.659 577.971C194.232 579.927 182.363 576.882 183.347 572.713Z" fill="#F7A9A0"/>
<path d="M199.658 577.968C201.751 577.215 208.871 572.745 216.901 567.473C216.921 567.488 216.937 567.469 216.955 567.468C230.005 558.964 244.194 548.687 244.194 548.687L269.005 546.86L301.81 480.619C293.446 482.935 287.187 484.445 286.708 483.917C286.708 483.917 252.414 464.111 251.87 464.414C247.134 466.707 184.307 568.52 183.346 572.707C182.366 576.879 194.229 579.935 199.658 577.968Z" fill="white"/>
<path d="M182.701 572.902C183.717 568.608 246.88 466.815 251.742 464.455C253.582 463.551 270.225 471.762 286.715 483.925L245.915 549.503C245.915 549.503 205.072 576.385 199.461 578.401C193.864 580.394 181.684 577.196 182.701 572.902Z" fill="#AA8D6D"/>
<path d="M187.679 573.967C198.685 557.164 241.495 488.35 251.098 470.904C251.176 470.762 251.082 470.703 250.991 470.837C239.717 487.253 197.467 556.411 187.398 573.794C187.187 574.161 187.447 574.322 187.679 573.967Z" fill="#263238"/>
<path d="M207.185 574.123C209.861 570.179 210.392 565.031 209.352 561.33C208.352 557.774 206.221 553.939 202.607 551.863C202.504 551.803 202.385 551.99 202.48 552.07C208.552 557.188 210.649 566.902 206.97 573.992C206.896 574.135 207.093 574.259 207.185 574.123Z" fill="#263238"/>
<path d="M240.885 553.792C245.217 547.021 247.72 537.607 244.768 529.897C244.654 529.598 244.23 529.766 244.21 530.032C243.561 538.181 242.291 545.522 239.972 553.387C239.807 553.941 240.575 554.276 240.885 553.792Z" fill="#263238"/>
<path d="M235.555 557.792C239.887 551.021 242.39 541.607 239.438 533.897C239.323 533.598 238.9 533.766 238.879 534.032C238.23 542.181 236.959 549.522 234.639 557.387C234.477 557.942 235.245 558.276 235.555 557.792Z" fill="#263238"/>
<path d="M230.231 561.788C234.563 555.017 237.066 545.603 234.114 537.893C234 537.594 233.576 537.762 233.554 538.03C232.906 546.178 231.636 553.519 229.315 561.385C229.153 561.938 229.92 562.273 230.231 561.788Z" fill="#263238"/>
<path d="M224.901 565.784C229.234 559.013 231.736 549.599 228.784 541.889C228.671 541.59 228.247 541.758 228.225 542.026C227.578 550.175 226.307 557.515 223.987 565.382C223.825 565.934 224.591 566.268 224.901 565.784Z" fill="#263238"/>
<path d="M264.61 485.307C269.342 477.631 257.421 470.263 252.68 477.952C247.948 485.629 259.87 492.996 264.61 485.307Z" fill="#263238"/>
<path d="M254.526 572.484C259.537 570.807 259.439 564.712 257.784 560.734C255.105 554.289 249.821 547.725 244.171 543.691C244.031 543.592 243.905 543.665 243.842 543.782C243.263 543.624 242.493 543.947 242.529 544.669C242.875 551.618 242.383 559.09 244.852 565.727C246.295 569.601 249.786 574.071 254.526 572.484ZM245.21 555.098C244.957 551.683 244.873 548.278 244.492 544.874C247.138 548.205 249.915 551.405 252.225 555.002C253.327 556.718 254.426 558.502 255.284 560.356C256.62 563.24 258.168 573.485 250.316 569.554C245.986 567.387 245.513 559.167 245.21 555.098Z" fill="#263238"/>
<path d="M252.171 525.148C247.568 530.527 245.455 537.712 242.735 544.118C242.453 544.783 243.063 545.35 243.663 545.402C243.681 545.532 243.774 545.646 243.939 545.601C250.634 543.76 257.857 539.418 262.591 534.291C265.514 531.126 267.706 525.439 263.579 522.137C259.675 519.014 254.857 522.007 252.171 525.148ZM258.616 523.437C267.342 522.451 262.359 531.536 260.111 533.783C258.667 535.227 257.021 536.523 255.396 537.755C251.99 540.336 248.28 542.384 244.648 544.6C246.176 541.536 247.429 538.368 248.843 535.25C250.529 531.533 253.805 523.98 258.616 523.437Z" fill="#263238"/>
<path d="M328.961 451.716C328.961 451.716 421.511 405.906 463.388 405.147C513.213 404.244 553.698 462.206 493.915 506.666C441.07 545.966 270.844 548.324 270.844 548.324L308.464 475.728C308.464 475.728 354.905 456.096 416.401 452.322L331.042 472.347L328.961 451.716Z" fill="#455A64"/>
<path d="M331.121 465.894C338.423 463.802 345.883 462.32 353.311 460.748C360.801 459.163 368.328 457.735 375.861 456.374C390.886 453.66 406.062 451.578 421.288 450.392C422.716 450.281 424.145 450.201 425.573 450.116C425.864 449.986 426.184 449.901 426.488 449.797C427.2 449.551 427.909 449.301 428.631 449.091C429.977 448.696 431.341 448.364 432.702 448.022C435.536 447.308 438.394 446.728 441.203 445.92C441.374 445.872 441.467 446.127 441.296 446.183C438.48 447.095 435.731 448.197 432.911 449.099C432.098 449.36 431.285 449.618 430.469 449.864C436.071 449.627 441.678 449.526 447.291 449.5C447.467 449.499 447.499 449.771 447.318 449.777C439.705 450.053 432.071 450.725 424.502 451.574C416.984 452.418 409.475 453.3 401.997 454.448C386.873 456.768 371.804 459.58 356.806 462.607C348.392 464.306 339.97 466.172 331.465 467.343C330.639 467.455 330.298 466.129 331.121 465.894Z" fill="#263238"/>
<path d="M288.043 544.567C290.349 539.956 292.226 535.09 294.288 530.366C296.356 525.627 298.428 520.888 300.506 516.151C304.652 506.704 319.723 474.823 321.295 472.543C321.395 472.398 321.639 472.53 321.596 472.691C320.975 475.105 311.675 496.15 309.521 500.85C305.212 510.25 300.628 519.498 296.124 528.803C294.838 531.46 293.495 534.089 292.186 536.736C290.88 539.377 289.468 541.99 288.29 544.691C288.221 544.853 287.962 544.728 288.043 544.567Z" fill="#263238"/>
<path d="M510.376 562.665C509.029 558.588 436.825 463.187 431.894 461.35C431.33 461.108 399.055 484.077 399.055 484.077C397.724 485.853 336.373 472.89 336.373 472.89L335.762 546.9L447.52 544.523C447.52 544.523 462.615 553.397 476.422 560.627C476.446 560.631 476.457 560.643 476.471 560.633C484.967 565.112 492.49 568.884 494.635 569.445C500.224 570.878 511.751 566.721 510.376 562.665Z" fill="#F7A9A0"/>
<path d="M494.637 569.446C492.483 568.894 484.969 565.12 476.476 560.633C476.459 560.651 476.441 560.633 476.423 560.633C462.624 553.405 447.526 544.52 447.526 544.52L422.653 545.054L383.715 482.221C392.261 483.734 398.635 484.642 399.062 484.072C399.062 484.072 431.324 461.105 431.895 461.354C436.827 463.187 509.024 558.584 510.377 562.662C511.748 566.721 500.228 570.888 494.637 569.446Z" fill="white"/>
<path d="M511.036 562.795C509.617 558.616 437.088 463.272 432.024 461.382C430.107 460.655 414.318 470.408 399.055 484.08L445.889 545.494C445.889 545.494 489.097 568.383 494.873 569.857C500.634 571.313 512.455 566.973 511.036 562.795Z" fill="#AA8D6D"/>
<path d="M506.181 564.334C493.631 548.649 444.491 484.205 433.277 467.747C433.185 467.614 433.273 467.547 433.376 467.672C446.156 482.945 494.773 547.786 506.444 564.136C506.691 564.481 506.447 564.666 506.181 564.334Z" fill="#263238"/>
<path d="M486.778 566.34C483.74 562.666 482.723 557.593 483.407 553.809C484.066 550.174 485.824 546.154 489.223 543.746C489.32 543.677 489.457 543.851 489.37 543.94C483.81 549.611 482.643 559.479 486.978 566.189C487.065 566.323 486.881 566.466 486.778 566.34Z" fill="#263238"/>
<path d="M451.304 549.296C446.349 542.965 442.965 533.832 445.173 525.876C445.258 525.567 445.695 525.694 445.741 525.958C447.16 534.008 449.12 541.196 452.174 548.806C452.391 549.343 451.659 549.749 451.304 549.296Z" fill="#263238"/>
<path d="M456.988 552.768C452.032 546.438 448.649 537.304 450.856 529.348C450.942 529.04 451.379 529.167 451.425 529.431C452.843 537.481 454.803 544.669 457.859 552.279C458.074 552.816 457.343 553.221 456.988 552.768Z" fill="#263238"/>
<path d="M462.667 556.245C457.712 549.915 454.329 540.781 456.536 532.825C456.622 532.516 457.058 532.644 457.106 532.908C458.523 540.958 460.484 548.146 463.54 555.757C463.754 556.292 463.022 556.698 462.667 556.245Z" fill="#263238"/>
<path d="M468.351 559.716C463.396 553.387 460.012 544.252 462.22 536.298C462.305 535.99 462.742 536.115 462.789 536.379C464.207 544.43 466.168 551.617 469.223 559.227C469.438 559.763 468.706 560.169 468.351 559.716Z" fill="#263238"/>
<path d="M421.193 483.367C415.754 476.174 426.924 467.709 432.372 474.915C437.811 482.108 426.642 490.574 421.193 483.367Z" fill="#263238"/>
<path d="M448.482 561.545C450.31 554.705 449.112 547.313 448.798 540.362C448.766 539.64 447.97 539.392 447.407 539.604C447.334 539.493 447.201 539.432 447.072 539.543C441.831 544.095 437.191 551.132 435.135 557.8C433.866 561.918 434.345 567.993 439.494 569.188C444.363 570.318 447.414 565.539 448.482 561.545ZM443.407 565.873C435.964 570.53 436.533 560.184 437.589 557.186C438.267 555.26 439.193 553.38 440.126 551.567C442.083 547.768 444.545 544.318 446.863 540.752C446.808 544.177 447.046 547.574 447.118 550.996C447.205 555.077 447.512 563.305 443.407 565.873Z" fill="#263238"/>
<path d="M425.712 519.932C421.917 523.611 424.638 529.063 427.848 531.938C433.047 536.592 440.649 540.231 447.488 541.429C447.657 541.458 447.738 541.336 447.743 541.204C448.336 541.096 448.889 540.473 448.545 539.838C445.231 533.719 442.446 526.767 437.354 521.849C434.381 518.976 429.302 516.453 425.712 519.932ZM441.625 531.588C443.328 534.558 444.874 537.593 446.687 540.499C442.862 538.638 438.975 536.951 435.339 534.704C433.604 533.633 431.843 532.497 430.269 531.198C427.819 529.173 421.996 520.601 430.777 520.756C435.616 520.84 439.595 528.049 441.625 531.588Z" fill="#263238"/>
<path d="M332.991 450.195C332.991 450.195 237.669 423.936 187.319 431.154C137.992 438.225 119.157 500.736 168.189 533.212C221.73 568.675 419.735 551.144 419.735 551.144L375.593 476.328C375.593 476.328 307.694 462.035 246.117 464.108L332.99 475.949L332.991 450.195Z" fill="#455A64"/>
<path d="M378.532 481.156C378.477 481.063 378.465 480.878 378.44 480.775C378.414 480.67 378.389 480.567 378.363 480.462C378.303 480.219 378.238 479.978 378.17 479.738C378.029 479.236 377.85 478.759 377.658 478.275C377.468 477.791 377.26 477.32 377.038 476.85C376.809 476.365 376.501 475.974 376.212 475.528C376.182 475.482 376.132 475.475 376.094 475.445C376.07 475.425 376.044 475.407 376.016 475.39C375.978 475.374 375.947 475.351 375.906 475.346C375.868 475.332 375.839 475.307 375.795 475.3C368.327 473.91 317.589 466.65 310.044 465.79C302.438 464.923 294.809 464.214 287.181 463.573C271.966 462.296 256.662 461.663 241.391 461.926C239.96 461.95 238.53 462.008 237.1 462.058C236.799 461.957 236.472 461.902 236.16 461.827C235.427 461.65 234.698 461.469 233.959 461.326C232.581 461.062 231.192 460.86 229.805 460.648C226.916 460.206 224.016 459.9 221.142 459.362C220.967 459.329 220.899 459.593 221.074 459.633C223.965 460.274 226.805 461.11 229.698 461.741C230.532 461.922 231.367 462.102 232.203 462.271C226.603 462.565 221.012 462.997 215.423 463.503C215.247 463.52 215.242 463.792 215.423 463.781C223.028 463.334 230.69 463.278 238.306 463.407C245.87 463.535 253.429 463.701 260.983 464.135C276.259 465.011 291.526 466.381 306.743 467.973C315.281 468.867 367.016 476.417 375.592 476.776C375.631 476.777 375.661 476.763 375.697 476.758C375.767 476.954 375.836 477.151 375.933 477.344C376.168 477.81 376.404 478.27 376.658 478.725C376.904 479.165 377.145 479.599 377.423 480.018C377.562 480.226 377.7 480.434 377.843 480.639C377.915 480.741 377.986 480.845 378.057 480.948C378.117 481.035 378.248 481.169 378.28 481.271C378.34 481.462 378.635 481.334 378.532 481.156Z" fill="#263238"/>
<path d="M403.814 546.598C401.08 542.226 398.751 537.562 396.25 533.053C393.741 528.531 391.229 524.01 388.711 519.492C383.688 510.48 365.662 480.172 363.881 478.051C363.769 477.917 363.538 478.07 363.595 478.228C364.443 480.572 375.695 500.64 378.285 505.115C383.465 514.064 388.907 522.836 394.272 531.672C395.804 534.195 397.39 536.685 398.944 539.196C400.494 541.701 402.149 544.168 403.576 546.745C403.663 546.901 403.91 546.751 403.814 546.598Z" fill="#263238"/>
<path d="M364.069 320.526C364.032 320.96 363.709 321.367 363.284 321.37C362.315 321.311 361.153 321.221 359.848 321.128C357.843 312.174 355.383 304.937 355.922 307.702C356.701 311.705 356.944 317.341 356.475 320.874C354.962 320.754 351.459 320.44 349.705 320.283C348.899 304.901 346.868 293.292 346.657 296.756C345.811 310.729 344.5 315.074 343.019 319.705C326.687 318.226 305.298 316.036 289.866 314.099C289.105 305.552 288.651 296.351 288.303 296.941C285.627 301.336 284.223 308.055 283.533 313.287C278.625 312.632 274.713 312.013 272.346 311.507C272.346 311.507 272.056 304.37 272.172 302.051C272.44 296.145 273.781 290.241 276.036 284.815C278.38 279.229 281.829 274.49 285.147 269.601C285.173 269.56 285.2 269.519 285.228 269.495C285.225 269.477 285.24 269.474 285.253 269.454C287.528 266.069 289.31 262.771 290.678 259.207C290.691 259.187 290.704 259.166 290.715 259.128C291.669 256.595 292.42 253.945 293.003 250.993C294.975 240.846 301.442 232.741 310.751 231.297C329.807 216.555 345.91 226.145 349.428 240.005C349.765 241.355 350.065 242.891 350.334 244.557L350.341 244.609C351.352 250.775 351.964 258.679 352.672 264.82C352.659 264.841 352.677 264.855 352.677 264.855C352.665 264.875 352.667 264.893 352.686 264.924L352.689 264.941C353.048 267.869 353.412 270.368 353.861 272.085C356.832 283.375 365.876 290.824 364.069 320.526Z" fill="#263238"/>
<path d="M306.494 233.569C300.198 236.035 295.996 240.34 294.165 247.692C293.099 251.977 292.306 256.193 290.241 260.089C288.11 264.109 285.132 267.234 282.086 270.346C277.243 275.289 273.664 280.385 272.118 287.634C270.547 294.997 269.802 303.839 271.293 311.124C271.302 311.166 271.359 311.154 271.353 311.111C270.317 303.793 271.464 294.023 273.541 286.8C275.823 278.866 280.731 274.362 285.869 268.81C289.951 264.398 292.833 259.293 294.34 253.153C295.232 249.518 295.652 245.664 297.467 242.377C299.631 238.452 303.257 236.271 306.818 234.384C307.302 234.126 306.971 233.381 306.494 233.569Z" fill="#263238"/>
<path d="M362.328 284.932C358.883 278.541 355.161 272.981 353.611 265.431C352.197 258.552 351.78 251.434 350.326 244.557C350.301 244.445 350.149 244.468 350.17 244.586C352.222 256.723 351.454 268.572 357.266 279.353C360.424 285.209 363.629 290.677 365.359 297.413C367.177 304.492 367.457 311.635 366.724 319.034C366.698 319.293 367.007 319.321 367.06 319.077C369.567 307.286 367.736 294.97 362.328 284.932Z" fill="#263238"/>
<path d="M359.415 379.377L369.657 439.346C369.657 439.346 316.1 460.25 251.289 439.086C251.289 439.086 270.49 333.867 295.801 306.385C308.46 292.639 323.325 293.666 332.798 303.277C335.196 305.709 360.236 339.949 363.249 354.39C365.879 367.133 359.415 379.377 359.415 379.377Z" fill="#AA8D6D"/>
<path d="M441.805 264.555C442.23 264.555 442.575 264.211 442.575 263.786C442.575 263.36 442.23 263.016 441.805 263.016C441.38 263.016 441.035 263.36 441.035 263.786C441.035 264.211 441.38 264.555 441.805 264.555Z" fill="white"/>
<path d="M306.817 305.407C306.817 305.832 306.472 306.177 306.047 306.177C305.622 306.177 305.277 305.832 305.277 305.407C305.277 304.981 305.622 304.637 306.047 304.637C306.472 304.637 306.817 304.981 306.817 305.407Z" fill="white"/>
<path d="M321.903 305.407C321.903 305.832 321.558 306.177 321.133 306.177C320.708 306.177 320.363 305.832 320.363 305.407C320.363 304.981 320.708 304.637 321.133 304.637C321.558 304.637 321.903 304.981 321.903 305.407Z" fill="white"/>
<path d="M291.731 326.219C291.731 326.644 291.387 326.989 290.961 326.989C290.536 326.989 290.191 326.644 290.191 326.219C290.191 325.794 290.536 325.449 290.961 325.449C291.387 325.449 291.731 325.794 291.731 326.219Z" fill="white"/>
<path d="M306.817 326.219C306.817 326.644 306.472 326.989 306.047 326.989C305.622 326.989 305.277 326.644 305.277 326.219C305.277 325.794 305.622 325.449 306.047 325.449C306.472 325.449 306.817 325.794 306.817 326.219Z" fill="white"/>
<path d="M321.903 326.219C321.903 326.644 321.558 326.989 321.133 326.989C320.708 326.989 320.363 326.644 320.363 326.219C320.363 325.794 320.708 325.449 321.133 325.449C321.558 325.449 321.903 325.794 321.903 326.219Z" fill="white"/>
<path d="M336.985 326.219C336.985 326.644 336.64 326.989 336.215 326.989C335.79 326.989 335.445 326.644 335.445 326.219C335.445 325.794 335.79 325.449 336.215 325.449C336.64 325.449 336.985 325.794 336.985 326.219Z" fill="white"/>
<path d="M299.274 315.844C299.274 316.269 298.929 316.614 298.504 316.614C298.079 316.614 297.734 316.269 297.734 315.844C297.734 315.419 298.079 315.074 298.504 315.074C298.929 315.074 299.274 315.419 299.274 315.844Z" fill="white"/>
<path d="M314.36 315.844C314.36 316.269 314.015 316.614 313.59 316.614C313.165 316.614 312.82 316.269 312.82 315.844C312.82 315.419 313.165 315.074 313.59 315.074C314.015 315.074 314.36 315.419 314.36 315.844Z" fill="white"/>
<path d="M329.442 315.844C329.442 316.269 329.097 316.614 328.672 316.614C328.247 316.614 327.902 316.269 327.902 315.844C327.902 315.419 328.247 315.074 328.672 315.074C329.097 315.074 329.442 315.419 329.442 315.844Z" fill="white"/>
<path d="M276.649 347.032C276.649 347.457 276.304 347.802 275.879 347.802C275.454 347.802 275.109 347.457 275.109 347.032C275.109 346.606 275.454 346.262 275.879 346.262C276.304 346.262 276.649 346.606 276.649 347.032Z" fill="white"/>
<path d="M291.731 347.032C291.731 347.457 291.387 347.802 290.961 347.802C290.536 347.802 290.191 347.457 290.191 347.032C290.191 346.606 290.536 346.262 290.961 346.262C291.387 346.262 291.731 346.606 291.731 347.032Z" fill="white"/>
<path d="M306.047 347.802C306.472 347.802 306.817 347.457 306.817 347.032C306.817 346.606 306.472 346.262 306.047 346.262C305.622 346.262 305.277 346.606 305.277 347.032C305.277 347.457 305.622 347.802 306.047 347.802Z" fill="white"/>
<path d="M321.133 347.802C321.558 347.802 321.903 347.457 321.903 347.032C321.903 346.606 321.558 346.262 321.133 346.262C320.708 346.262 320.363 346.606 320.363 347.032C320.363 347.457 320.708 347.802 321.133 347.802Z" fill="white"/>
<path d="M336.985 347.032C336.985 347.457 336.64 347.802 336.215 347.802C335.79 347.802 335.445 347.457 335.445 347.032C335.445 346.606 335.79 346.262 336.215 346.262C336.64 346.262 336.985 346.606 336.985 347.032Z" fill="white"/>
<path d="M351.301 347.802C351.726 347.802 352.071 347.457 352.071 347.032C352.071 346.606 351.726 346.262 351.301 346.262C350.876 346.262 350.531 346.606 350.531 347.032C350.531 347.457 350.876 347.802 351.301 347.802Z" fill="white"/>
<path d="M284.188 336.657C284.188 337.082 283.844 337.427 283.418 337.427C282.993 337.427 282.648 337.082 282.648 336.657C282.648 336.231 282.993 335.887 283.418 335.887C283.844 335.887 284.188 336.231 284.188 336.657Z" fill="white"/>
<path d="M299.274 336.657C299.274 337.082 298.929 337.427 298.504 337.427C298.079 337.427 297.734 337.082 297.734 336.657C297.734 336.231 298.079 335.887 298.504 335.887C298.929 335.887 299.274 336.231 299.274 336.657Z" fill="white"/>
<path d="M314.36 336.657C314.36 337.082 314.015 337.427 313.59 337.427C313.165 337.427 312.82 337.082 312.82 336.657C312.82 336.231 313.165 335.887 313.59 335.887C314.015 335.887 314.36 336.231 314.36 336.657Z" fill="white"/>
<path d="M329.442 336.657C329.442 337.082 329.097 337.427 328.672 337.427C328.247 337.427 327.902 337.082 327.902 336.657C327.902 336.231 328.247 335.887 328.672 335.887C329.097 335.887 329.442 336.231 329.442 336.657Z" fill="white"/>
<path d="M344.528 336.657C344.528 337.082 344.183 337.427 343.758 337.427C343.333 337.427 342.988 337.082 342.988 336.657C342.988 336.231 343.333 335.887 343.758 335.887C344.183 335.887 344.528 336.231 344.528 336.657Z" fill="white"/>
<path d="M276.649 367.844C276.649 368.269 276.304 368.614 275.879 368.614C275.454 368.614 275.109 368.269 275.109 367.844C275.109 367.419 275.454 367.074 275.879 367.074C276.304 367.074 276.649 367.419 276.649 367.844Z" fill="white"/>
<path d="M291.731 367.844C291.731 368.269 291.387 368.614 290.961 368.614C290.536 368.614 290.191 368.269 290.191 367.844C290.191 367.419 290.536 367.074 290.961 367.074C291.387 367.074 291.731 367.419 291.731 367.844Z" fill="white"/>
<path d="M306.047 368.614C306.472 368.614 306.817 368.269 306.817 367.844C306.817 367.419 306.472 367.074 306.047 367.074C305.622 367.074 305.277 367.419 305.277 367.844C305.277 368.269 305.622 368.614 306.047 368.614Z" fill="white"/>
<path d="M321.133 368.614C321.558 368.614 321.903 368.269 321.903 367.844C321.903 367.419 321.558 367.074 321.133 367.074C320.708 367.074 320.363 367.419 320.363 367.844C320.363 368.269 320.708 368.614 321.133 368.614Z" fill="white"/>
<path d="M336.985 367.844C336.985 368.269 336.64 368.614 336.215 368.614C335.79 368.614 335.445 368.269 335.445 367.844C335.445 367.419 335.79 367.074 336.215 367.074C336.64 367.074 336.985 367.419 336.985 367.844Z" fill="white"/>
<path d="M351.301 368.614C351.726 368.614 352.071 368.269 352.071 367.844C352.071 367.419 351.726 367.074 351.301 367.074C350.876 367.074 350.531 367.419 350.531 367.844C350.531 368.269 350.876 368.614 351.301 368.614Z" fill="white"/>
<path d="M284.188 357.469C284.188 357.894 283.844 358.239 283.418 358.239C282.993 358.239 282.648 357.894 282.648 357.469C282.648 357.044 282.993 356.699 283.418 356.699C283.844 356.699 284.188 357.044 284.188 357.469Z" fill="white"/>
<path d="M299.274 357.469C299.274 357.894 298.929 358.239 298.504 358.239C298.079 358.239 297.734 357.894 297.734 357.469C297.734 357.044 298.079 356.699 298.504 356.699C298.929 356.699 299.274 357.044 299.274 357.469Z" fill="white"/>
<path d="M314.36 357.469C314.36 357.894 314.015 358.239 313.59 358.239C313.165 358.239 312.82 357.894 312.82 357.469C312.82 357.044 313.165 356.699 313.59 356.699C314.015 356.699 314.36 357.044 314.36 357.469Z" fill="white"/>
<path d="M329.442 357.469C329.442 357.894 329.097 358.239 328.672 358.239C328.247 358.239 327.902 357.894 327.902 357.469C327.902 357.044 328.247 356.699 328.672 356.699C329.097 356.699 329.442 357.044 329.442 357.469Z" fill="white"/>
<path d="M344.528 357.469C344.528 357.894 344.183 358.239 343.758 358.239C343.333 358.239 342.988 357.894 342.988 357.469C342.988 357.044 343.333 356.699 343.758 356.699C344.183 356.699 344.528 357.044 344.528 357.469Z" fill="white"/>
<path d="M359.61 357.469C359.61 357.894 359.265 358.239 358.84 358.239C358.415 358.239 358.07 357.894 358.07 357.469C358.07 357.044 358.415 356.699 358.84 356.699C359.265 356.699 359.61 357.044 359.61 357.469Z" fill="white"/>
<path d="M276.649 388.653C276.649 389.078 276.304 389.423 275.879 389.423C275.454 389.423 275.109 389.078 275.109 388.653C275.109 388.228 275.454 387.883 275.879 387.883C276.304 387.883 276.649 388.228 276.649 388.653Z" fill="white"/>
<path d="M291.731 388.653C291.731 389.078 291.387 389.423 290.961 389.423C290.536 389.423 290.191 389.078 290.191 388.653C290.191 388.228 290.536 387.883 290.961 387.883C291.387 387.883 291.731 388.228 291.731 388.653Z" fill="white"/>
<path d="M306.047 389.423C306.472 389.423 306.817 389.078 306.817 388.653C306.817 388.228 306.472 387.883 306.047 387.883C305.622 387.883 305.277 388.228 305.277 388.653C305.277 389.078 305.622 389.423 306.047 389.423Z" fill="white"/>
<path d="M321.133 389.423C321.558 389.423 321.903 389.078 321.903 388.653C321.903 388.228 321.558 387.883 321.133 387.883C320.708 387.883 320.363 388.228 320.363 388.653C320.363 389.078 320.708 389.423 321.133 389.423Z" fill="white"/>
<path d="M336.985 388.653C336.985 389.078 336.64 389.423 336.215 389.423C335.79 389.423 335.445 389.078 335.445 388.653C335.445 388.228 335.79 387.883 336.215 387.883C336.64 387.883 336.985 388.228 336.985 388.653Z" fill="white"/>
<path d="M351.301 389.423C351.726 389.423 352.071 389.078 352.071 388.653C352.071 388.228 351.726 387.883 351.301 387.883C350.876 387.883 350.531 388.228 350.531 388.653C350.531 389.078 350.876 389.423 351.301 389.423Z" fill="white"/>
<path d="M269.106 378.282C269.106 378.707 268.762 379.052 268.336 379.052C267.911 379.052 267.566 378.707 267.566 378.282C267.566 377.856 267.911 377.512 268.336 377.512C268.762 377.513 269.106 377.856 269.106 378.282Z" fill="white"/>
<path d="M284.188 378.282C284.188 378.707 283.844 379.052 283.418 379.052C282.993 379.052 282.648 378.707 282.648 378.282C282.648 377.856 282.993 377.512 283.418 377.512C283.844 377.513 284.188 377.856 284.188 378.282Z" fill="white"/>
<path d="M298.504 379.052C298.93 379.052 299.274 378.707 299.274 378.282C299.274 377.856 298.93 377.512 298.504 377.512C298.079 377.512 297.734 377.856 297.734 378.282C297.734 378.707 298.079 379.052 298.504 379.052Z" fill="white"/>
<path d="M314.36 378.282C314.36 378.707 314.015 379.052 313.59 379.052C313.165 379.052 312.82 378.707 312.82 378.282C312.82 377.856 313.165 377.512 313.59 377.512C314.015 377.513 314.36 377.856 314.36 378.282Z" fill="white"/>
<path d="M328.672 379.052C329.097 379.052 329.442 378.707 329.442 378.282C329.442 377.856 329.097 377.512 328.672 377.512C328.247 377.512 327.902 377.856 327.902 378.282C327.902 378.707 328.247 379.052 328.672 379.052Z" fill="white"/>
<path d="M344.528 378.282C344.528 378.707 344.183 379.052 343.758 379.052C343.333 379.052 342.988 378.707 342.988 378.282C342.988 377.856 343.333 377.512 343.758 377.512C344.183 377.513 344.528 377.856 344.528 378.282Z" fill="white"/>
<path d="M358.84 379.052C359.265 379.052 359.61 378.707 359.61 378.282C359.61 377.856 359.265 377.512 358.84 377.512C358.415 377.512 358.07 377.856 358.07 378.282C358.07 378.707 358.415 379.052 358.84 379.052Z" fill="white"/>
<path d="M261.563 409.465C261.563 409.89 261.219 410.235 260.793 410.235C260.368 410.235 260.023 409.89 260.023 409.465C260.023 409.04 260.368 408.695 260.793 408.695C261.219 408.697 261.563 409.041 261.563 409.465Z" fill="white"/>
<path d="M276.649 409.465C276.649 409.89 276.304 410.235 275.879 410.235C275.454 410.235 275.109 409.89 275.109 409.465C275.109 409.04 275.454 408.695 275.879 408.695C276.304 408.697 276.649 409.041 276.649 409.465Z" fill="white"/>
<path d="M291.731 409.465C291.731 409.89 291.387 410.235 290.961 410.235C290.536 410.235 290.191 409.89 290.191 409.465C290.191 409.04 290.536 408.695 290.961 408.695C291.387 408.697 291.731 409.041 291.731 409.465Z" fill="white"/>
<path d="M306.047 410.235C306.472 410.235 306.817 409.89 306.817 409.465C306.817 409.04 306.472 408.695 306.047 408.695C305.622 408.695 305.277 409.04 305.277 409.465C305.277 409.89 305.622 410.235 306.047 410.235Z" fill="white"/>
<path d="M321.133 410.235C321.558 410.235 321.903 409.89 321.903 409.465C321.903 409.04 321.558 408.695 321.133 408.695C320.708 408.695 320.363 409.04 320.363 409.465C320.363 409.89 320.708 410.235 321.133 410.235Z" fill="white"/>
<path d="M336.985 409.465C336.985 409.89 336.64 410.235 336.215 410.235C335.79 410.235 335.445 409.89 335.445 409.465C335.445 409.04 335.79 408.695 336.215 408.695C336.64 408.695 336.985 409.041 336.985 409.465Z" fill="white"/>
<path d="M351.301 410.235C351.726 410.235 352.071 409.89 352.071 409.465C352.071 409.04 351.726 408.695 351.301 408.695C350.876 408.695 350.531 409.04 350.531 409.465C350.531 409.89 350.876 410.235 351.301 410.235Z" fill="white"/>
<path d="M269.106 399.09C269.106 399.515 268.762 399.86 268.336 399.86C267.911 399.86 267.566 399.515 267.566 399.09C267.566 398.665 267.911 398.32 268.336 398.32C268.762 398.32 269.106 398.665 269.106 399.09Z" fill="white"/>
<path d="M284.188 399.09C284.188 399.515 283.844 399.86 283.418 399.86C282.993 399.86 282.648 399.515 282.648 399.09C282.648 398.665 282.993 398.32 283.418 398.32C283.844 398.32 284.188 398.665 284.188 399.09Z" fill="white"/>
<path d="M298.504 399.86C298.93 399.86 299.274 399.515 299.274 399.09C299.274 398.665 298.93 398.32 298.504 398.32C298.079 398.32 297.734 398.665 297.734 399.09C297.734 399.515 298.079 399.86 298.504 399.86Z" fill="white"/>
<path d="M314.36 399.09C314.36 399.515 314.015 399.86 313.59 399.86C313.165 399.86 312.82 399.515 312.82 399.09C312.82 398.665 313.165 398.32 313.59 398.32C314.015 398.32 314.36 398.665 314.36 399.09Z" fill="white"/>
<path d="M328.672 399.86C329.097 399.86 329.442 399.515 329.442 399.09C329.442 398.665 329.097 398.32 328.672 398.32C328.247 398.32 327.902 398.665 327.902 399.09C327.902 399.515 328.247 399.86 328.672 399.86Z" fill="white"/>
<path d="M344.528 399.09C344.528 399.515 344.183 399.86 343.758 399.86C343.333 399.86 342.988 399.515 342.988 399.09C342.988 398.665 343.333 398.32 343.758 398.32C344.183 398.32 344.528 398.665 344.528 399.09Z" fill="white"/>
<path d="M358.84 399.86C359.265 399.86 359.61 399.515 359.61 399.09C359.61 398.665 359.265 398.32 358.84 398.32C358.415 398.32 358.07 398.665 358.07 399.09C358.07 399.515 358.415 399.86 358.84 399.86Z" fill="white"/>
<path d="M261.563 430.278C261.563 430.703 261.219 431.048 260.793 431.048C260.368 431.048 260.023 430.703 260.023 430.278C260.023 429.853 260.368 429.508 260.793 429.508C261.219 429.508 261.563 429.853 261.563 430.278Z" fill="white"/>
<path d="M276.649 430.278C276.649 430.703 276.304 431.048 275.879 431.048C275.454 431.048 275.109 430.703 275.109 430.278C275.109 429.853 275.454 429.508 275.879 429.508C276.304 429.508 276.649 429.853 276.649 430.278Z" fill="white"/>
<path d="M291.731 430.278C291.731 430.703 291.387 431.048 290.961 431.048C290.536 431.048 290.191 430.703 290.191 430.278C290.191 429.853 290.536 429.508 290.961 429.508C291.387 429.508 291.731 429.853 291.731 430.278Z" fill="white"/>
<path d="M306.047 431.048C306.472 431.048 306.817 430.703 306.817 430.278C306.817 429.853 306.472 429.508 306.047 429.508C305.622 429.508 305.277 429.853 305.277 430.278C305.277 430.703 305.622 431.048 306.047 431.048Z" fill="white"/>
<path d="M321.133 431.048C321.558 431.048 321.903 430.703 321.903 430.278C321.903 429.853 321.558 429.508 321.133 429.508C320.708 429.508 320.363 429.853 320.363 430.278C320.363 430.703 320.708 431.048 321.133 431.048Z" fill="white"/>
<path d="M336.985 430.278C336.985 430.703 336.64 431.048 336.215 431.048C335.79 431.048 335.445 430.703 335.445 430.278C335.445 429.853 335.79 429.508 336.215 429.508C336.64 429.508 336.985 429.853 336.985 430.278Z" fill="white"/>
<path d="M351.301 431.048C351.726 431.048 352.071 430.703 352.071 430.278C352.071 429.853 351.726 429.508 351.301 429.508C350.876 429.508 350.531 429.853 350.531 430.278C350.531 430.703 350.876 431.048 351.301 431.048Z" fill="white"/>
<path d="M367.153 430.278C367.153 430.703 366.808 431.048 366.383 431.048C365.958 431.048 365.613 430.703 365.613 430.278C365.613 429.853 365.958 429.508 366.383 429.508C366.808 429.508 367.153 429.853 367.153 430.278Z" fill="white"/>
<path d="M269.106 419.903C269.106 420.328 268.762 420.673 268.336 420.673C267.911 420.673 267.566 420.328 267.566 419.903C267.566 419.478 267.911 419.133 268.336 419.133C268.762 419.133 269.106 419.478 269.106 419.903Z" fill="white"/>
<path d="M284.188 419.903C284.188 420.328 283.844 420.673 283.418 420.673C282.993 420.673 282.648 420.328 282.648 419.903C282.648 419.478 282.993 419.133 283.418 419.133C283.844 419.133 284.188 419.478 284.188 419.903Z" fill="white"/>
<path d="M298.504 420.673C298.93 420.673 299.274 420.328 299.274 419.903C299.274 419.478 298.93 419.133 298.504 419.133C298.079 419.133 297.734 419.478 297.734 419.903C297.734 420.328 298.079 420.673 298.504 420.673Z" fill="white"/>
<path d="M314.36 419.903C314.36 420.328 314.015 420.673 313.59 420.673C313.165 420.673 312.82 420.328 312.82 419.903C312.82 419.478 313.165 419.133 313.59 419.133C314.015 419.133 314.36 419.478 314.36 419.903Z" fill="white"/>
<path d="M328.672 420.673C329.097 420.673 329.442 420.328 329.442 419.903C329.442 419.478 329.097 419.133 328.672 419.133C328.247 419.133 327.902 419.478 327.902 419.903C327.902 420.328 328.247 420.673 328.672 420.673Z" fill="white"/>
<path d="M344.528 419.903C344.528 420.328 344.183 420.673 343.758 420.673C343.333 420.673 342.988 420.328 342.988 419.903C342.988 419.478 343.333 419.133 343.758 419.133C344.183 419.133 344.528 419.478 344.528 419.903Z" fill="white"/>
<path d="M358.84 420.673C359.265 420.673 359.61 420.328 359.61 419.903C359.61 419.478 359.265 419.133 358.84 419.133C358.415 419.133 358.07 419.478 358.07 419.903C358.07 420.328 358.415 420.673 358.84 420.673Z" fill="white"/>
<path d="M269.106 440.715C269.106 441.14 268.762 441.485 268.336 441.485C267.911 441.485 267.566 441.14 267.566 440.715C267.566 440.29 267.911 439.945 268.336 439.945C268.762 439.945 269.106 440.29 269.106 440.715Z" fill="white"/>
<path d="M284.188 440.715C284.188 441.14 283.844 441.485 283.418 441.485C282.993 441.485 282.648 441.14 282.648 440.715C282.648 440.29 282.993 439.945 283.418 439.945C283.844 439.945 284.188 440.29 284.188 440.715Z" fill="white"/>
<path d="M298.504 441.485C298.93 441.485 299.274 441.14 299.274 440.715C299.274 440.29 298.93 439.945 298.504 439.945C298.079 439.945 297.734 440.29 297.734 440.715C297.734 441.14 298.079 441.485 298.504 441.485Z" fill="white"/>
<path d="M314.36 440.715C314.36 441.14 314.015 441.485 313.59 441.485C313.165 441.485 312.82 441.14 312.82 440.715C312.82 440.29 313.165 439.945 313.59 439.945C314.015 439.945 314.36 440.29 314.36 440.715Z" fill="white"/>
<path d="M328.672 441.485C329.097 441.485 329.442 441.14 329.442 440.715C329.442 440.29 329.097 439.945 328.672 439.945C328.247 439.945 327.902 440.29 327.902 440.715C327.902 441.14 328.247 441.485 328.672 441.485Z" fill="white"/>
<path d="M344.528 440.715C344.528 441.14 344.183 441.485 343.758 441.485C343.333 441.485 342.988 441.14 342.988 440.715C342.988 440.29 343.333 439.945 343.758 439.945C344.183 439.945 344.528 440.29 344.528 440.715Z" fill="white"/>
<path d="M358.84 441.485C359.265 441.485 359.61 441.14 359.61 440.715C359.61 440.29 359.265 439.945 358.84 439.945C358.415 439.945 358.07 440.29 358.07 440.715C358.07 441.14 358.415 441.485 358.84 441.485Z" fill="white"/>
<path d="M292.675 307.413C239.824 344.504 193.463 396.855 197.191 414.026C201.134 432.181 236.139 453.504 267.494 458.638C273.917 459.69 295.41 413.046 288.874 410.657C283.783 408.797 260.593 401.38 257.9 398.079C256.027 395.785 294.013 345.87 306.699 319.577C319.976 292.062 306.823 297.482 292.675 307.413Z" fill="#F7A9A0"/>
<path d="M275.628 408.789C275.628 408.789 295.249 411.41 308 413.728C315.113 415.02 327.113 418.326 331.903 421.666C339.07 426.662 365.854 452.136 359.819 458.763C354.354 464.761 346.726 454.738 346.726 454.738C346.726 454.738 356.09 464.912 348.843 469.196C341.528 473.519 332.865 459.493 332.865 459.493C332.865 459.493 343.557 469.604 335.383 473.44C328.287 476.769 316.556 461.702 316.556 461.702C316.556 461.702 328.944 471.084 322.009 475.207C314.346 479.763 293.918 459.382 293.918 459.382C277.005 460.714 266.67 459.23 254.905 455.512C252.746 454.828 275.628 408.789 275.628 408.789Z" fill="#F7A9A0"/>
<path d="M335.717 462.883C334.989 461.811 334.234 460.758 333.504 459.686C332.071 457.586 330.657 455.547 328.984 453.626C327.367 451.77 325.674 449.995 323.925 448.265C322.076 446.438 320.032 444.79 318.232 442.919C318.087 442.768 317.877 442.98 318.03 443.125C319.88 444.869 321.467 446.97 323.1 448.912C324.719 450.838 326.314 452.786 327.905 454.733C329.463 456.64 331.135 458.422 332.745 460.281C333.547 461.207 334.308 462.171 335.071 463.13C335.783 464.029 336.439 465.063 337.299 465.827C337.384 465.903 337.503 465.791 337.465 465.696C337.057 464.689 336.327 463.781 335.717 462.883Z" fill="#263238"/>
<path d="M348.637 456.895C347.757 454.889 342.072 447.308 340.503 445.457C337.47 441.879 334.103 438.554 330.422 435.651C330.293 435.55 330.113 435.729 330.22 435.856C333.237 439.457 336.315 443.019 339.384 446.58C340.884 448.321 347.457 456.435 348.252 457.197C348.442 457.382 348.732 457.112 348.637 456.895Z" fill="#263238"/>
<path d="M323.728 468.829C322.795 466.956 317.404 459.897 315.884 458.213C314.456 456.633 307.778 450.829 305.583 449.48C305.444 449.394 305.264 449.569 305.382 449.685C308.579 452.845 311.821 455.941 314.866 459.251C316.348 460.864 321.891 467.636 323.441 469.055C323.58 469.183 323.81 468.992 323.728 468.829Z" fill="#263238"/>
<path d="M233.758 353.341L272.213 380.088C272.213 380.088 302.828 335.913 311.089 314.781C319.35 293.65 310.527 293.315 289.41 308.13C268.292 322.945 233.758 353.341 233.758 353.341Z" fill="#AA8D6D"/>
<path d="M306.817 305.411C306.817 305.836 306.472 306.18 306.047 306.18C305.622 306.18 305.277 305.836 305.277 305.411C305.277 304.985 305.622 304.641 306.047 304.641C306.472 304.641 306.817 304.985 306.817 305.411Z" fill="white"/>
<path d="M276.645 326.219C276.645 326.644 276.301 326.989 275.875 326.989C275.45 326.989 275.105 326.644 275.105 326.219C275.105 325.794 275.45 325.449 275.875 325.449C276.301 325.449 276.645 325.794 276.645 326.219Z" fill="white"/>
<path d="M291.731 326.219C291.731 326.644 291.387 326.989 290.961 326.989C290.536 326.989 290.191 326.644 290.191 326.219C290.191 325.794 290.536 325.449 290.961 325.449C291.387 325.449 291.731 325.794 291.731 326.219Z" fill="white"/>
<path d="M306.125 325.462C305.908 325.871 305.691 326.305 305.461 326.726C305.346 326.598 305.27 326.42 305.27 326.215C305.27 325.794 305.614 325.449 306.048 325.449C306.074 325.449 306.099 325.449 306.125 325.462Z" fill="white"/>
<path d="M284.188 315.848C284.188 316.273 283.844 316.618 283.418 316.618C282.993 316.618 282.648 316.273 282.648 315.848C282.648 315.423 282.993 315.078 283.418 315.078C283.844 315.078 284.188 315.423 284.188 315.848Z" fill="white"/>
<path d="M299.274 315.848C299.274 316.273 298.929 316.618 298.504 316.618C298.079 316.618 297.734 316.273 297.734 315.848C297.734 315.423 298.079 315.078 298.504 315.078C298.929 315.078 299.274 315.423 299.274 315.848Z" fill="white"/>
<path d="M245.707 347.802C246.133 347.802 246.477 347.457 246.477 347.032C246.477 346.606 246.133 346.262 245.707 346.262C245.282 346.262 244.938 346.606 244.938 347.032C244.938 347.457 245.282 347.802 245.707 347.802Z" fill="white"/>
<path d="M261.563 347.032C261.563 347.457 261.219 347.802 260.793 347.802C260.368 347.802 260.023 347.457 260.023 347.032C260.023 346.606 260.368 346.262 260.793 346.262C261.219 346.262 261.563 346.606 261.563 347.032Z" fill="white"/>
<path d="M276.645 347.032C276.645 347.457 276.301 347.802 275.875 347.802C275.45 347.802 275.105 347.457 275.105 347.032C275.105 346.606 275.45 346.262 275.875 346.262C276.301 346.262 276.645 346.606 276.645 347.032Z" fill="white"/>
<path d="M291.731 347.032C291.731 347.457 291.387 347.802 290.961 347.802C290.536 347.802 290.191 347.457 290.191 347.032C290.191 346.606 290.536 346.262 290.961 346.262C291.387 346.262 291.731 346.606 291.731 347.032Z" fill="white"/>
<path d="M254.018 336.662C254.018 337.083 253.673 337.428 253.251 337.428C253.009 337.428 252.792 337.313 252.664 337.134C253.047 336.815 253.43 336.483 253.813 336.164C253.954 336.305 254.018 336.471 254.018 336.662Z" fill="white"/>
<path d="M269.102 336.661C269.102 337.086 268.758 337.43 268.332 337.43C267.907 337.43 267.562 337.086 267.562 336.661C267.562 336.235 267.907 335.891 268.332 335.891C268.758 335.891 269.102 336.235 269.102 336.661Z" fill="white"/>
<path d="M284.188 336.661C284.188 337.086 283.844 337.43 283.418 337.43C282.993 337.43 282.648 337.086 282.648 336.661C282.648 336.235 282.993 335.891 283.418 335.891C283.844 335.891 284.188 336.235 284.188 336.661Z" fill="white"/>
<path d="M299.274 336.661C299.274 337.086 298.929 337.43 298.504 337.43C298.079 337.43 297.734 337.086 297.734 336.661C297.734 336.235 298.079 335.891 298.504 335.891C298.929 335.891 299.274 336.235 299.274 336.661Z" fill="white"/>
<path d="M261.563 367.844C261.563 368.269 261.219 368.614 260.793 368.614C260.368 368.614 260.023 368.269 260.023 367.844C260.023 367.419 260.368 367.074 260.793 367.074C261.219 367.074 261.563 367.419 261.563 367.844Z" fill="white"/>
<path d="M276.645 367.844C276.645 368.269 276.301 368.614 275.875 368.614C275.45 368.614 275.105 368.269 275.105 367.844C275.105 367.419 275.45 367.074 275.875 367.074C276.301 367.074 276.645 367.419 276.645 367.844Z" fill="white"/>
<path d="M254.02 357.469C254.02 357.894 253.676 358.239 253.25 358.239C252.825 358.239 252.48 357.894 252.48 357.469C252.48 357.044 252.825 356.699 253.25 356.699C253.676 356.699 254.02 357.044 254.02 357.469Z" fill="white"/>
<path d="M269.102 357.469C269.102 357.894 268.758 358.239 268.332 358.239C267.907 358.239 267.562 357.894 267.562 357.469C267.562 357.044 267.907 356.699 268.332 356.699C268.758 356.699 269.102 357.044 269.102 357.469Z" fill="white"/>
<path d="M284.188 357.469C284.188 357.894 283.844 358.239 283.418 358.239C282.993 358.239 282.648 357.894 282.648 357.469C282.648 357.044 282.993 356.699 283.418 356.699C283.844 356.699 284.188 357.044 284.188 357.469Z" fill="white"/>
<path d="M242.867 347.998C257.465 360.407 271.986 369.03 274.855 371.131C274.991 371.23 275.136 371.001 274.993 370.907C272.072 368.993 256.435 356.691 243.02 347.752C242.864 347.65 242.726 347.88 242.867 347.998Z" fill="#263238"/>
<path d="M269.751 378.263C270.014 378.311 271.74 379.356 272.097 379.579C276.711 372.184 275.838 373.897 280.52 366.545C282.814 362.942 285.115 359.343 287.405 355.736C289.783 351.984 291.968 348.052 294.55 344.437C294.626 344.33 294.772 344.427 294.719 344.542C293.081 348.153 290.999 351.603 289.011 355.044C289.43 354.52 289.831 353.983 290.28 353.482C291.286 352.36 292.274 351.236 293.189 350.038C293.329 349.855 293.639 350.044 293.498 350.229C292.624 351.373 291.839 352.559 291.055 353.767C290.271 354.976 289.422 356.119 288.556 357.27C287.721 358.38 286.815 359.424 285.903 360.471C285.792 360.599 285.682 360.729 285.571 360.858C284.302 363.01 283.061 365.178 281.742 367.302C277.125 374.741 272.537 380.5 272.403 380.451C271.876 380.261 269.824 378.652 269.621 378.472C269.517 378.379 269.641 378.242 269.751 378.263Z" fill="#263238"/>
<path d="M345.867 308.038C387.035 331.161 425.488 358.895 432.266 377.514C436.532 389.23 430.122 409.999 425.037 422.458C422.561 428.525 365.431 402.743 370.406 397.813C382.718 385.615 384.775 380.626 383.585 378.039C382.824 376.384 338.301 335.114 326.029 316.762C308.932 291.194 327.856 297.922 345.867 308.038Z" fill="#F7A9A0"/>
<path d="M346.684 453.899C352.053 457.146 358.936 443.231 358.936 443.231C358.936 443.231 358.991 447.565 361.933 450.512C365.303 453.886 372.071 450.083 372.071 450.083C372.071 450.083 373.035 454.457 376.456 457.257C380.005 460.163 387.383 457.299 387.383 457.299C387.383 457.299 390.52 460.881 395.212 461.18C403.236 461.69 410.393 451.714 415.006 445.418C419.62 439.124 426.81 416.944 428.608 412.857L388.455 382.898C388.455 382.898 359.734 405.244 355.36 413.416C351.676 420.301 338.479 448.936 346.684 453.899Z" fill="#F7A9A0"/>
<path d="M358.851 443.027C361.011 434.767 365.145 427.041 369.216 419.627C369.307 419.463 369.565 419.607 369.471 419.77C365.337 427.096 363.063 435.701 359.229 443.176C359.121 443.384 358.792 443.25 358.851 443.027Z" fill="#263238"/>
<path d="M371.644 449.559C372.189 447.705 373.345 446.036 374.35 444.406C375.431 442.649 376.545 440.914 377.684 439.194C379.964 435.752 382.323 432.36 384.78 429.041C384.889 428.894 385.141 429.024 385.035 429.185C382.769 432.62 380.554 436.089 378.433 439.617C377.372 441.381 376.326 443.157 375.292 444.937C374.331 446.594 373.453 448.423 372.138 449.835C371.944 450.043 371.562 449.839 371.644 449.559Z" fill="#263238"/>
<path d="M387.475 457.153C387.884 455.523 389.214 454.007 390.158 452.643C391.229 451.096 392.293 449.545 393.347 447.986C395.455 444.869 397.563 441.751 399.562 438.561C399.661 438.403 399.917 438.545 399.817 438.706C397.803 441.956 395.833 445.233 393.79 448.466C392.787 450.053 391.775 451.635 390.754 453.21C389.886 454.551 388.954 456.323 387.628 457.267C387.554 457.318 387.456 457.235 387.475 457.153Z" fill="#263238"/>
<path d="M405.286 342.614L373.654 371.675C373.654 371.675 334.496 334.663 323.46 314.839C312.424 295.015 321.121 293.495 344.044 305.324C366.967 317.154 405.286 342.614 405.286 342.614Z" fill="#AA8D6D"/>
<path d="M405.286 342.614L373.654 371.675C373.654 371.675 334.496 334.663 323.46 314.839C312.424 295.015 321.121 293.495 344.044 305.324C366.967 317.154 405.286 342.614 405.286 342.614Z" fill="#AA8D6D"/>
<path d="M321.903 305.411C321.903 305.836 321.558 306.18 321.133 306.18C320.708 306.18 320.363 305.836 320.363 305.411C320.363 304.985 320.708 304.641 321.133 304.641C321.558 304.641 321.903 304.985 321.903 305.411Z" fill="white"/>
<path d="M336.989 305.411C336.989 305.836 336.644 306.18 336.219 306.18C335.794 306.18 335.449 305.836 335.449 305.411C335.449 304.985 335.794 304.641 336.219 304.641C336.644 304.641 336.989 304.985 336.989 305.411Z" fill="white"/>
<path d="M336.989 326.219C336.989 326.644 336.644 326.989 336.219 326.989C335.794 326.989 335.449 326.644 335.449 326.219C335.449 325.794 335.794 325.449 336.219 325.449C336.644 325.449 336.989 325.794 336.989 326.219Z" fill="white"/>
<path d="M352.071 326.219C352.071 326.644 351.726 326.989 351.301 326.989C350.876 326.989 350.531 326.644 350.531 326.219C350.531 325.794 350.876 325.449 351.301 325.449C351.726 325.449 352.071 325.794 352.071 326.219Z" fill="white"/>
<path d="M367.157 326.219C367.157 326.644 366.812 326.989 366.387 326.989C365.962 326.989 365.617 326.644 365.617 326.219C365.617 325.794 365.962 325.449 366.387 325.449C366.812 325.449 367.157 325.794 367.157 326.219Z" fill="white"/>
<path d="M329.446 315.848C329.446 316.273 329.101 316.618 328.676 316.618C328.251 316.618 327.906 316.273 327.906 315.848C327.906 315.423 328.251 315.078 328.676 315.078C329.101 315.078 329.446 315.423 329.446 315.848Z" fill="white"/>
<path d="M344.528 315.848C344.528 316.273 344.183 316.618 343.758 316.618C343.333 316.618 342.988 316.273 342.988 315.848C342.988 315.423 343.333 315.078 343.758 315.078C344.183 315.078 344.528 315.423 344.528 315.848Z" fill="white"/>
<path d="M359.614 315.848C359.614 316.273 359.269 316.618 358.844 316.618C358.419 316.618 358.074 316.273 358.074 315.848C358.074 315.423 358.419 315.078 358.844 315.078C359.269 315.078 359.614 315.423 359.614 315.848Z" fill="white"/>
<path d="M351.301 347.802C351.726 347.802 352.071 347.457 352.071 347.032C352.071 346.606 351.726 346.262 351.301 346.262C350.876 346.262 350.531 346.606 350.531 347.032C350.531 347.457 350.876 347.802 351.301 347.802Z" fill="white"/>
<path d="M367.157 347.032C367.157 347.457 366.812 347.802 366.387 347.802C365.962 347.802 365.617 347.457 365.617 347.032C365.617 346.606 365.962 346.262 366.387 346.262C366.812 346.262 367.157 346.606 367.157 347.032Z" fill="white"/>
<path d="M381.473 347.802C381.898 347.802 382.243 347.457 382.243 347.032C382.243 346.606 381.898 346.262 381.473 346.262C381.048 346.262 380.703 346.606 380.703 347.032C380.703 347.457 381.048 347.802 381.473 347.802Z" fill="white"/>
<path d="M397.325 347.032C397.325 347.457 396.98 347.802 396.555 347.802C396.13 347.802 395.785 347.457 395.785 347.032C395.785 346.606 396.13 346.262 396.555 346.262C396.98 346.262 397.325 346.606 397.325 347.032Z" fill="white"/>
<path d="M344.528 336.661C344.528 337.086 344.183 337.43 343.758 337.43C343.333 337.43 342.988 337.086 342.988 336.661C342.988 336.235 343.333 335.891 343.758 335.891C344.183 335.891 344.528 336.235 344.528 336.661Z" fill="white"/>
<path d="M359.614 336.661C359.614 337.086 359.269 337.43 358.844 337.43C358.419 337.43 358.074 337.086 358.074 336.661C358.074 336.235 358.419 335.891 358.844 335.891C359.269 335.891 359.614 336.235 359.614 336.661Z" fill="white"/>
<path d="M374.7 336.661C374.7 337.086 374.355 337.43 373.93 337.43C373.505 337.43 373.16 337.086 373.16 336.661C373.16 336.235 373.505 335.891 373.93 335.891C374.355 335.891 374.7 336.235 374.7 336.661Z" fill="white"/>
<path d="M389.782 336.661C389.782 337.086 389.437 337.43 389.012 337.43C388.587 337.43 388.242 337.086 388.242 336.661C388.242 336.235 388.587 335.891 389.012 335.891C389.439 335.891 389.782 336.235 389.782 336.661Z" fill="white"/>
<path d="M359.613 357.473C359.613 357.575 359.588 357.677 359.55 357.767C359.218 357.435 358.898 357.103 358.566 356.758C358.656 356.72 358.745 356.707 358.847 356.707C359.269 356.707 359.613 357.052 359.613 357.473Z" fill="white"/>
<path d="M374.7 357.469C374.7 357.894 374.355 358.239 373.93 358.239C373.505 358.239 373.16 357.894 373.16 357.469C373.16 357.044 373.505 356.699 373.93 356.699C374.355 356.699 374.7 357.044 374.7 357.469Z" fill="white"/>
<path d="M389.621 357.013L388.498 358.035C388.344 357.907 388.242 357.703 388.242 357.473C388.242 357.052 388.587 356.707 389.008 356.707C389.264 356.707 389.494 356.822 389.621 357.013Z" fill="white"/>
<path d="M367.532 363.615C382.084 352.049 392.926 339.889 395.457 337.556C395.577 337.446 395.376 337.269 395.261 337.386C392.906 339.801 378.285 352.365 367.318 363.429C367.19 363.556 367.392 363.726 367.532 363.615Z" fill="#263238"/>
<path d="M364.142 355.643C363.93 352.995 363.003 350.049 361.909 347.636C361.696 347.165 361.467 346.703 361.237 346.241C361.177 345.951 361.116 345.665 361.071 345.403C360.93 344.578 360.764 343.764 360.577 342.948C360.193 341.256 359.763 339.574 359.326 337.894C359.293 337.769 359.11 337.828 359.134 337.952C359.479 339.67 359.751 341.402 359.977 343.141C360.017 343.45 360.059 343.76 360.098 344.069C359.465 342.93 358.796 341.809 358.112 340.697C356.683 338.377 355.013 336.221 353.569 333.913C353.501 333.804 353.33 333.909 353.399 334.018C354.78 336.192 355.933 338.498 357.159 340.762C358.426 343.101 359.581 345.51 360.584 347.975C361.537 350.319 362.362 352.701 362.957 355.161C363.7 358.237 363.628 361.62 363.852 362.104C363.902 362.21 364.072 362.368 364.119 362.273C364.359 361.798 364.387 358.699 364.142 355.643Z" fill="#263238"/>
<path d="M289.41 308.125C289.41 308.125 312.965 325.43 327.195 323.838C341.427 322.245 349.124 308.024 349.124 308.024C349.124 308.024 326.423 293.514 312.641 296.373C302.113 298.558 289.41 308.125 289.41 308.125Z" fill="#F7A9A0"/>
<path d="M310.873 302.622C311.699 305.34 319.76 317.161 328.192 315.878C332.527 315.218 330.812 299.96 330.812 299.96L330.895 298.813L332.043 282.767L309.184 272.641C309.184 272.641 310.638 301.846 310.873 302.622Z" fill="#F7A9A0"/>
<path d="M309.739 283.536C316.083 294.43 326.243 297.818 330.901 298.812L332.049 282.763L309.176 272.633C309.176 272.633 309.422 277.621 309.739 283.536Z" fill="#263238"/>
<path d="M354.145 261.993C353.445 290.218 336.46 292.986 330.374 292.829C324.849 292.686 306.054 291.496 303.834 263.35C301.613 235.204 314.959 226.605 327.612 226.265C340.265 225.922 354.844 233.766 354.145 261.993Z" fill="#F7A9A0"/>
<path d="M346.518 255.969C345.859 255.869 345.266 255.666 344.625 255.5C343.901 255.312 343.305 255.237 342.785 254.653C342.507 254.341 342.552 253.728 342.83 253.428C343.479 252.732 344.422 252.741 345.305 252.931C346.261 253.138 346.945 253.541 347.554 254.305C348.146 255.045 347.388 256.1 346.518 255.969Z" fill="#263238"/>
<path d="M328.363 254.87C329.029 254.849 329.641 254.717 330.297 254.628C331.039 254.527 331.639 254.523 332.224 254.005C332.537 253.726 332.566 253.112 332.323 252.783C331.762 252.014 330.823 251.913 329.926 251.997C328.951 252.089 328.225 252.41 327.529 253.095C326.856 253.761 327.484 254.898 328.363 254.87Z" fill="#263238"/>
<path d="M331.515 262.285C331.505 262.211 331.36 262.367 331.357 262.446C331.303 264.369 330.916 266.561 329.142 267.094C329.087 267.11 329.087 267.207 329.151 267.202C331.288 267.031 331.772 264.115 331.515 262.285Z" fill="#263238"/>
<path d="M329.923 260.177C326.851 259.757 326.236 265.933 329.082 266.322C331.884 266.704 332.498 260.529 329.923 260.177Z" fill="#263238"/>
<path d="M328.678 260.383C328.103 260.678 327.514 261.244 326.857 261.243C326.097 261.243 325.593 260.539 325.164 259.869C325.119 259.8 325.06 259.848 325.051 259.93C324.916 261.111 325.251 262.371 326.502 262.673C327.643 262.949 328.578 261.983 328.992 260.824C329.068 260.608 328.909 260.263 328.678 260.383Z" fill="#263238"/>
<path d="M342.552 262.873C342.571 262.8 342.696 262.973 342.69 263.05C342.517 264.966 342.641 267.189 344.341 267.928C344.393 267.951 344.383 268.047 344.319 268.034C342.216 267.613 342.081 264.661 342.552 262.873Z" fill="#263238"/>
<path d="M344.382 260.969C347.482 260.914 347.363 267.12 344.492 267.169C341.665 267.219 341.784 261.014 344.382 260.969Z" fill="#263238"/>
<path d="M345.669 261.402C346.153 261.74 346.627 262.347 347.212 262.397C347.89 262.454 348.404 261.793 348.85 261.158C348.896 261.093 348.945 261.145 348.945 261.227C348.955 262.413 348.538 263.642 347.394 263.847C346.351 264.035 345.608 263.003 345.348 261.816C345.3 261.597 345.474 261.267 345.669 261.402Z" fill="#263238"/>
<path d="M329.637 277.458C329.929 278.031 330.167 278.765 330.81 279.044C331.427 279.31 332.266 279.275 332.924 279.244C332.989 279.241 333.026 279.322 332.971 279.364C332.262 279.904 331.119 280.008 330.325 279.576C329.549 279.155 329.38 278.304 329.435 277.482C329.442 277.366 329.595 277.373 329.637 277.458Z" fill="#263238"/>
<path d="M338.953 271.468C338.953 271.468 339.097 274.363 338.98 275.712C338.968 275.839 334.713 276.374 332.104 272.912C332.007 272.783 332.206 272.648 332.321 272.744C333.985 274.206 335.922 274.714 338.031 274.935C338.159 274.569 337.617 269.984 337.833 269.988C338.576 269.989 339.985 270.619 340.836 270.95C340.71 264.91 339.616 258.941 339.58 252.926C339.582 252.711 339.894 252.674 339.94 252.87C341.53 259.046 341.827 265.992 342.119 272.225C342.163 273.002 339.474 271.745 338.953 271.468Z" fill="#263238"/>
<path d="M337.151 275.408C337.151 275.408 335.807 276.87 334.136 277.27C333.521 277.421 332.872 277.436 332.222 277.187C330.885 276.681 330.985 275.414 331.351 274.362C331.65 273.495 332.143 272.773 332.143 272.773C332.143 272.773 333.952 274.867 337.151 275.408Z" fill="#263238"/>
<path d="M334.136 277.272C333.521 277.423 332.872 277.438 332.222 277.189C330.885 276.682 330.985 275.415 331.351 274.363C332.811 274.67 334.163 275.825 334.136 277.272Z" fill="#FF9ABB"/>
<path d="M305.609 265.149C310.811 266.336 313.358 254.403 313.358 254.403C313.358 254.403 336.18 252.824 339.896 234.737C339.896 234.737 342.587 246.768 353.821 253.206C353.821 253.206 355.022 233.092 339.524 227.626C339.524 227.626 320.524 218.496 307.892 233.039C295.26 247.581 302.118 264.352 305.609 265.149Z" fill="#263238"/>
<path d="M308.266 265.636C308.266 265.636 303.121 256.192 298.903 257.933C294.685 259.672 297.87 272.883 302.341 275.142C306.813 277.401 308.984 273.302 308.984 273.302L308.266 265.636Z" fill="#F7A9A0"/>
<path d="M299.909 261.697C299.835 261.682 299.808 261.785 299.871 261.819C302.994 263.51 304.377 266.736 305.232 270.017C304.395 268.698 303.145 267.886 301.393 268.862C301.301 268.913 301.367 269.056 301.462 269.048C302.834 268.91 303.775 269.251 304.559 270.425C305.116 271.258 305.447 272.266 305.807 273.196C305.927 273.506 306.473 273.408 306.399 273.059C306.394 273.034 306.387 273.007 306.381 272.981C306.929 268.816 304.34 262.617 299.909 261.697Z" fill="#263238"/>
<path d="M302.987 274.154C303.089 274.815 303.708 275.268 304.37 275.168C305.031 275.065 305.484 274.447 305.382 273.785C305.28 273.123 304.661 272.67 304 272.772C303.339 272.874 302.885 273.492 302.987 274.154Z" fill="white"/>
<path d="M340.109 233.391C340.133 236.209 339.441 239.03 338.281 241.634C337.119 244.239 335.45 246.662 333.313 248.594C332.818 249.119 332.199 249.5 331.648 249.96L330.796 250.62C330.496 250.816 330.186 250.996 329.875 251.177C329.252 251.531 328.643 251.911 328.01 252.24C327.356 252.528 326.695 252.801 326.035 253.065C325.704 253.196 325.378 253.341 325.044 253.459L324.016 253.743L321.968 254.305C320.575 254.549 319.172 254.72 317.781 254.868C319.126 254.433 320.488 254.142 321.805 253.7L323.753 252.98L324.723 252.623C325.037 252.483 325.34 252.316 325.648 252.163C326.259 251.848 326.872 251.541 327.492 251.25C328.084 250.909 328.647 250.519 329.225 250.158L330.089 249.611L330.885 248.973C331.401 248.53 331.983 248.164 332.444 247.66C334.487 245.855 336.082 243.601 337.401 241.207C338.056 240.002 338.595 238.732 339.046 237.425C339.522 236.122 339.861 234.773 340.109 233.391Z" fill="#263238"/>
<path d="M309.148 232.085C311.48 231.216 313.693 218.196 305.133 211.993C296.702 205.884 285.607 212.875 290.207 223.546C293.113 230.289 304.217 233.924 309.148 232.085Z" fill="#263238"/>
<path d="M293.165 211.223C290.552 213.361 288.871 216.39 288.227 219.479C287.576 222.597 288.513 225.785 290.824 227.869C293.068 230.064 296.173 231.294 299.329 232.029C300.925 232.372 302.565 232.578 304.216 232.627C305.869 232.703 307.542 232.622 309.146 232.085C307.699 233.017 305.941 233.308 304.25 233.537C302.538 233.706 300.8 233.694 299.079 233.455C295.667 232.97 292.18 231.729 289.541 229.209C288.245 227.945 287.184 226.336 286.721 224.539C286.262 222.745 286.325 220.86 286.82 219.147C287.792 215.723 290.135 212.77 293.165 211.223Z" fill="#263238"/>
<path d="M429.511 470.453H296.285V476.429H429.511V470.453Z" fill="#C7C7C7"/>
<path d="M330.492 476.425H460.33L471.14 388.242H341.302L330.492 476.425Z" fill="#C7C7C7"/>
<path d="M392.915 432.333C392.839 436.697 396.314 440.237 400.68 440.237C405.044 440.237 408.645 436.699 408.721 432.333C408.798 427.969 405.321 424.43 400.957 424.43C396.593 424.431 392.992 427.969 392.915 432.333Z" fill="white"/>
</svg>
