<svg width="754" height="39" viewBox="0 0 754 39" fill="none" xmlns="http://www.w3.org/2000/svg">
<g clip-path="url(#clip0_658_105837)">
<g clip-path="url(#clip1_658_105837)">
<path d="M392.148 31.9645C392.148 32.2188 391.943 32.5743 391.59 32.8803C390.906 33.5397 390.345 33.5397 389.916 33.0829C389.508 32.6756 385.042 27.7251 384.637 27.2166C384.382 26.861 384.763 26.4807 385.118 26.6833C385.728 27.0905 390.879 30.5694 391.639 31.1027C391.97 31.3299 392.148 31.609 392.148 31.915V31.9645ZM392.148 6.33904C392.148 6.59331 391.97 6.84759 391.639 7.07711C390.879 7.61041 385.728 11.0892 385.118 11.4965C384.763 11.6991 384.382 11.3188 384.637 10.9632C385.042 10.4547 389.508 5.50196 389.916 5.09692C390.345 4.64012 390.906 4.64012 391.59 5.30169C391.945 5.63022 392.148 5.961 392.148 6.29178V6.33904ZM395.955 19.2148C395.955 20.9925 394.382 22.0591 392.807 22.0591C391.894 22.0591 391.032 21.7553 390.321 21.4492L390.219 21.5505C391.234 22.5654 391.792 23.3282 391.792 24.3453C391.792 25.6144 390.777 26.4785 389.153 26.4785C386.057 26.4785 382.706 23.5847 381.792 22.7701C381.437 22.4663 381.691 22.0591 382.148 22.3628C382.553 22.6171 383.77 23.1752 384.787 23.1752C385.548 23.1752 386.057 22.8714 386.057 22.2593C386.057 21.447 385.042 20.9902 384.281 20.4321C383.926 20.2296 384.027 19.9236 384.484 20.0249C384.79 20.0766 386.108 20.6347 387.377 20.6347C388.392 20.6347 389.355 20.3286 389.355 19.1608C389.355 17.9929 388.392 17.6869 387.377 17.6869C386.108 17.6869 384.79 18.2472 384.484 18.2967C384.029 18.398 383.926 18.0942 384.281 17.8894C385.042 17.3291 386.057 16.8746 386.057 16.06C386.057 15.4007 385.55 15.1441 384.787 15.1441C383.773 15.1441 382.555 15.7044 382.148 15.9565C381.691 16.2602 381.437 15.8552 381.792 15.5492C382.706 14.7368 386.054 11.8408 389.153 11.8408C390.777 11.8408 391.792 12.7049 391.792 13.974C391.792 14.9911 391.234 15.7517 390.219 16.7688L390.321 16.8701C391.032 16.564 391.894 16.2602 392.807 16.2602C394.38 16.2602 395.955 17.3268 395.955 19.1563V19.2148ZM376.97 21.7553C375.55 21.7553 374.382 20.5874 374.382 19.1653C374.382 17.6914 375.55 16.5235 377.022 16.5235C378.392 16.5235 379.56 17.6914 379.56 19.1653C379.56 20.5874 378.392 21.7553 377.022 21.7553H376.97ZM376.97 38.1098C375.195 38.1098 374.128 36.5347 374.128 34.9595C374.128 34.046 374.432 33.1819 374.738 32.4708L374.637 32.3695C373.622 33.3866 372.859 33.9447 371.844 33.9447C370.575 33.9447 369.713 32.9299 369.713 31.3029C369.713 28.2044 372.607 24.8516 373.419 23.938C373.723 23.5825 374.13 23.8367 373.824 24.2935C373.57 24.7008 373.012 25.9182 373.012 26.9353C373.012 27.6981 373.316 28.2044 373.926 28.2044C374.736 28.2044 375.192 27.1895 375.753 26.4267C375.955 26.0712 376.259 26.1724 376.158 26.6315C376.106 26.9353 375.548 28.2562 375.548 29.5275C375.548 30.5424 375.852 31.5077 377.02 31.5077C378.188 31.5077 378.491 30.5424 378.491 29.5275C378.491 28.2562 377.933 26.9375 377.884 26.6315C377.782 26.1747 378.086 26.0712 378.289 26.4267C378.847 27.1895 379.304 28.2044 380.116 28.2044C380.775 28.2044 381.03 27.6981 381.03 26.9353C381.03 25.9182 380.471 24.7008 380.217 24.2935C379.913 23.8367 380.318 23.5825 380.622 23.938C381.435 24.8516 384.328 28.2044 384.328 31.3029C384.328 32.9299 383.464 33.9447 382.195 33.9447C381.18 33.9447 380.42 33.3866 379.405 32.3695L379.304 32.4708C379.607 33.1819 379.913 34.046 379.913 34.9595C379.913 36.5347 378.847 38.1098 377.02 38.1098H376.97ZM377.022 0.117188C378.8 0.117188 379.866 1.69234 379.866 3.26749C379.866 4.18333 379.562 5.04516 379.256 5.75623L379.358 5.85749C380.372 4.84264 381.133 4.28234 382.15 4.28234C383.419 4.28234 384.281 5.29944 384.281 6.92409C384.281 10.0226 381.387 13.3755 380.577 14.2891C380.273 14.6446 379.866 14.3903 380.17 13.9313C380.424 13.5262 380.982 12.3066 380.982 11.2918C380.982 10.5289 380.728 10.0204 380.069 10.0204C379.256 10.0204 378.802 11.0352 378.242 11.7981C378.039 12.1536 377.733 12.0523 377.836 11.5955C377.888 11.2918 378.446 9.96864 378.446 8.69951C378.446 7.68467 378.14 6.71932 376.972 6.71932C375.807 6.71932 375.501 7.68467 375.501 8.69951C375.501 9.97089 376.059 11.2918 376.111 11.5955C376.212 12.0523 375.906 12.1536 375.703 11.7981C375.145 11.0352 374.688 10.0204 373.876 10.0204C373.266 10.0204 372.963 10.5289 372.963 11.2918C372.963 12.3066 373.521 13.5262 373.775 13.9313C374.079 14.3881 373.674 14.6446 373.368 14.2891C372.555 13.3732 369.661 10.0226 369.661 6.92409C369.661 5.29944 370.526 4.28234 371.792 4.28234C372.809 4.28234 373.57 4.84264 374.585 5.85749L374.686 5.75623C374.38 5.04516 374.076 4.18333 374.076 3.26749C374.076 1.69234 375.143 0.117188 376.968 0.117188H377.022ZM361.972 31.9128C361.972 31.6585 362.125 31.3795 362.454 31.1499C363.215 30.6166 368.368 27.1378 368.975 26.7305C369.331 26.528 369.711 26.9083 369.459 27.2638C369.052 27.7724 364.585 32.7251 364.18 33.1301C363.748 33.5869 363.19 33.5869 362.504 32.9276C362.175 32.6238 361.97 32.266 361.97 31.9623V31.9128H361.972ZM361.948 6.26253C361.948 5.9835 362.125 5.67747 362.454 5.34669C363.14 4.68738 363.696 4.68738 364.13 5.14417C364.538 5.55146 369.004 10.5019 369.409 11.0105C369.664 11.366 369.283 11.7463 368.926 11.5438C368.318 11.1365 363.165 7.65766 362.404 7.12436C362.076 6.89484 361.95 6.64057 361.95 6.31203V6.26253H361.948ZM358.039 19.1653C358.039 17.3854 359.612 16.321 361.187 16.321C362.101 16.321 362.963 16.6248 363.674 16.9308L363.775 16.8295C362.758 15.8125 362.202 15.0519 362.202 14.0348C362.202 12.7657 363.217 11.9016 364.841 11.9016C367.938 11.9016 371.288 14.7954 372.2 15.6099C372.555 15.9137 372.301 16.321 371.844 16.0172C371.437 15.7629 370.222 15.2049 369.205 15.2049C368.444 15.2049 367.936 15.4592 367.936 16.1207C367.936 16.9331 368.95 17.3899 369.711 17.9502C370.066 18.1527 369.965 18.4565 369.506 18.3574C369.202 18.3057 367.884 17.7476 366.615 17.7476C365.6 17.7476 364.634 18.0514 364.634 19.2215C364.634 20.3894 365.6 20.6932 366.615 20.6932C367.884 20.6932 369.202 20.1351 369.506 20.0834C369.963 19.9821 370.064 20.2881 369.711 20.4907C368.95 21.051 367.936 21.5055 367.936 22.3178C367.936 22.9276 368.442 23.2337 369.205 23.2337C370.222 23.2337 371.437 22.6734 371.844 22.4213C372.301 22.1176 372.555 22.5226 372.2 22.8286C371.286 23.641 367.938 26.537 364.841 26.537C363.217 26.537 362.202 25.6729 362.202 24.4038C362.202 23.3867 362.76 22.6239 363.775 21.609L363.674 21.5078C362.963 21.8115 362.101 22.1176 361.187 22.1176C359.614 22.1176 358.039 21.051 358.039 19.2215V19.1653Z" fill="#A68A6C"/>
<path d="M346.311 16.7951C349.079 16.7951 351.338 17.8482 351.338 19.0745C351.338 20.3594 349.079 21.3563 346.311 21.3563H346.142H344.052C343.204 23.4017 341.284 24.8036 339.025 24.8036C337.162 24.8036 335.58 23.8698 334.563 22.4656C334.223 22.5826 333.885 22.6411 333.546 22.6411C332.472 22.6411 331.511 22.1731 330.89 21.3563L0.0859375 19.0745L330.893 16.8536C331.514 16.0345 332.475 15.5102 333.548 15.5102C333.885 15.5102 334.225 15.5687 334.565 15.6857C335.582 14.2838 337.162 13.4062 339.027 13.4062C341.286 13.4062 343.206 14.8081 344.054 16.7973H346.145L346.311 16.7951Z" fill="#A68A6C"/>
<path d="M407.681 16.7951C404.911 16.7951 402.654 17.8482 402.654 19.0745C402.654 20.3594 404.914 21.3563 407.681 21.3563H407.85H409.941C410.787 23.4017 412.708 24.8036 414.967 24.8036C416.831 24.8036 418.413 23.8698 419.43 22.4656C419.767 22.5826 420.109 22.6411 420.447 22.6411C421.518 22.6411 422.481 22.1731 423.1 21.3563L753.906 19.0745L423.1 16.8536C422.479 16.0345 421.518 15.5102 420.447 15.5102C420.109 15.5102 419.767 15.5687 419.43 15.6857C418.415 14.2838 416.833 13.4062 414.967 13.4062C412.708 13.4062 410.789 14.8081 409.941 16.7973H407.85L407.681 16.7951Z" fill="#A68A6C"/>
</g>
</g>
<defs>
<clipPath id="clip0_658_105837">
<rect width="753.823" height="38.2537" fill="white" transform="translate(0.0898438)"/>
</clipPath>
<clipPath id="clip1_658_105837">
<rect width="753.823" height="38.2537" fill="white" transform="translate(0.0898438)"/>
</clipPath>
</defs>
</svg>
